<svg class="animated" id="freepik_stories-data-processing" xmlns="http://www.w3.org/2000/svg" viewBox="0 0 500 500" version="1.1" xmlns:xlink="http://www.w3.org/1999/xlink" xmlns:svgjs="http://svgjs.com/svgjs"><style>svg#freepik_stories-data-processing:not(.animated) .animable {opacity: 0;}svg#freepik_stories-data-processing.animated #freepik--Data--inject-252 {animation: 1s 1 forwards cubic-bezier(.36,-0.01,.5,1.38) slideDown,3s Infinite  linear floating;animation-delay: 0s,1s;}svg#freepik_stories-data-processing.animated #freepik--Character--inject-252 {animation: 1s 1 forwards cubic-bezier(.36,-0.01,.5,1.38) slideDown,3s Infinite  linear floating;animation-delay: 0s,1s;}            @keyframes slideDown {                0% {                    opacity: 0;                    transform: translateY(-30px);                }                100% {                    opacity: 1;                    transform: translateY(0);                }            }                    @keyframes floating {                0% {                    opacity: 1;                    transform: translateY(0px);                }                50% {                    transform: translateY(-10px);                }                100% {                    opacity: 1;                    transform: translateY(0px);                }            }        .animator-hidden { display: none; }</style><g id="freepik--background-complete--inject-252" class="animable animator-hidden" style="transform-origin: 249.885px 206.015px;"><rect x="71.11" y="341.52" width="26.48" height="11.19" style="fill: rgb(235, 235, 235); transform-origin: 84.35px 347.115px;" id="eluieqap2ed7l" class="animable"></rect><path d="M82.82,366.82l-13.12.28-6.66.11c-2.23.05-4.47,0-6.7.05H55.9v-.45l-.06-11.19v-.5h.5l13.24.06c4.41,0,8.83.11,13.24.16h.28v.27c0,1.9-.08,3.78-.13,5.65Zm0,0-.14-5.66c-.05-1.86-.11-3.7-.13-5.53l.27.27c-4.41.05-8.83.16-13.24.16l-13.24.07.5-.5-.05,11.19-.45-.45c2.18,0,4.36,0,6.55.06l6.58.11Z" style="fill: rgb(235, 235, 235); transform-origin: 69.47px 361.19px;" id="el5mu93ib21gc" class="animable"></path><rect x="284.75" y="143.07" width="26.48" height="11.19" style="fill: rgb(235, 235, 235); transform-origin: 297.99px 148.665px;" id="elgjdldugt4jb" class="animable"></rect><path d="M296.46,168.37l-13.12.28-6.67.11c-2.22.05-4.46,0-6.69.06h-.44v-.45l0-11.19v-.5h.5l13.24.07c4.41,0,8.83.11,13.24.16h.28v.27c0,1.9-.08,3.79-.13,5.66Zm0,0-.14-5.65c-.05-1.86-.11-3.71-.13-5.54l.27.28c-4.41,0-8.83.15-13.24.16l-13.24.06.5-.5-.05,11.19-.45-.44c2.18,0,4.36,0,6.55,0l6.57.11Z" style="fill: rgb(235, 235, 235); transform-origin: 283.17px 162.75px;" id="eln2sssrefv6a" class="animable"></path><path d="M281.75,154.26l-13.13.28-6.66.11c-2.22,0-4.46,0-6.69.06h-.45v-.45l0-11.19v-.5h.51l13.24.07c4.41,0,8.82.11,13.24.16H282v.27c0,1.9-.09,3.79-.13,5.66Zm0,0-.15-5.65c0-1.86-.11-3.71-.13-5.54l.28.28c-4.42.05-8.83.15-13.24.16l-13.24.06.5-.5-.06,11.19-.44-.44c2.18,0,4.35,0,6.54.05l6.58.11Z" style="fill: rgb(235, 235, 235); transform-origin: 268.41px 148.64px;" id="el3qoi0wj1c87" class="animable"></path><rect x="417.18" y="355.63" width="26.48" height="11.19" style="fill: rgb(235, 235, 235); transform-origin: 430.42px 361.225px;" id="eld35vhnjuap9" class="animable"></rect><rect x="158.28" y="257.77" width="26.48" height="11.19" style="fill: rgb(235, 235, 235); transform-origin: 171.52px 263.365px;" id="elxveedhqxxzs" class="animable"></rect><path d="M428.89,83.14l-13.13.28-6.66.11c-2.22,0-4.46,0-6.69,0H402v-.45l0-11.19v-.5h.51l13.24.06c4.41,0,8.82.11,13.24.17h.27V72c0,1.9-.09,3.79-.13,5.65Zm0,0-.14-5.66c-.05-1.86-.12-3.7-.14-5.53l.28.27c-4.42,0-8.83.16-13.24.17l-13.24.06.5-.5-.06,11.19-.44-.45c2.18,0,4.35,0,6.54.06l6.58.11Z" style="fill: rgb(235, 235, 235); transform-origin: 415.63px 77.46px;" id="el5ms6in6ftxj" class="animable"></path><path d="M443.66,97.25l-13.13.28-6.66.11c-2.22,0-4.46,0-6.69,0h-.45v-.45l-.05-11.19v-.5h.5l13.24.06c4.41,0,8.83.11,13.24.17h.27v.27c0,1.9-.08,3.79-.13,5.65Zm0,0-.14-5.66c0-1.86-.12-3.7-.13-5.53l.27.27c-4.41,0-8.83.16-13.24.16l-13.24.07.5-.5-.06,11.19-.44-.45c2.18,0,4.36,0,6.54.06l6.58.11Z" style="fill: rgb(235, 235, 235); transform-origin: 430.305px 91.57px;" id="el4njaabreg3t" class="animable"></path><rect x="61.11" y="71.95" width="26.48" height="11.19" style="fill: rgb(235, 235, 235); transform-origin: 74.35px 77.545px;" id="el8objywjvlfn" class="animable"></rect><path d="M226.28,153.36a14.76,14.76,0,0,1,8.3-2,7.22,7.22,0,0,1,6.23,11.11,15.79,15.79,0,0,1-14.31,8,7.23,7.23,0,0,1-6.24-11.1A14.79,14.79,0,0,1,226.28,153.36Zm6.64,11.83a11.45,11.45,0,0,0,4.52-4.43c.77-1.57.81-2.9.26-3.81s-1.66-1.63-3.42-1.82a12.05,12.05,0,0,0-10.63,6,4.2,4.2,0,0,0-.26,3.89,4.07,4.07,0,0,0,3.42,1.74A11.34,11.34,0,0,0,232.92,165.19Z" style="fill: rgb(235, 235, 235); transform-origin: 230.542px 160.908px;" id="elgr36fo54f5d" class="animable"></path><path d="M255.82,217.9a14.72,14.72,0,0,1,1.58,8.39A7.23,7.23,0,0,1,246,232a15.79,15.79,0,0,1-7.33-14.68,7.23,7.23,0,0,1,11.39-5.7A14.83,14.83,0,0,1,255.82,217.9ZM243.69,224a11.35,11.35,0,0,0,4.2,4.73c1.54.84,2.86,1,3.8.44s1.7-1.58,2-3.33a12.1,12.1,0,0,0-5.45-10.9,4.18,4.18,0,0,0-3.87-.45,4.08,4.08,0,0,0-1.91,3.33A11.36,11.36,0,0,0,243.69,224Z" style="fill: rgb(235, 235, 235); transform-origin: 248.051px 221.813px;" id="elug6y90xa8gg" class="animable"></path><path d="M209.87,219l9.89-17.68a1.93,1.93,0,0,1,2.61-.71,1.86,1.86,0,0,1,.72,2.57l-8.25,14.74h1.59a1.63,1.63,0,0,1,1,.23,1.92,1.92,0,0,1-.86,3.57l-4.91.12s-.11,0-.15,0-.13,0-.2,0a1.59,1.59,0,0,1-.2-.07c-.05,0-.11,0-.14,0a.58.58,0,0,1-.22-.08l-.09,0,0,0-.21-.12a.27.27,0,0,0-.1-.09c-.1,0-.11-.1-.15-.16a.35.35,0,0,1-.11-.1c-.05-.11-.06-.16-.13-.19a.46.46,0,0,0-.06-.16,1.11,1.11,0,0,1-.07-.16c-.05-.06,0-.14-.06-.18a.79.79,0,0,1,0-.17s0-.14-.05-.19v-.08s0-.07,0-.1,0-.13,0-.19a1.41,1.41,0,0,0,0-.18,1,1,0,0,0,0-.17c.05-.09.09-.15.06-.24Z" style="fill: rgb(235, 235, 235); transform-origin: 216.531px 211.102px;" id="elkcqj40s5mzg" class="animable"></path><path d="M251.25,200.72l-10.56-17.29a1.92,1.92,0,0,1,.66-2.62,1.87,1.87,0,0,1,2.6.63l8.8,14.42.76-1.39a1.82,1.82,0,0,1,.68-.74,1.86,1.86,0,0,1,1.88,0,1.83,1.83,0,0,1,.81,2.52l-2.3,4.35s-.07.08-.08.12-.05.12-.09.18-.1.1-.16.14-.07.08-.1.1a.45.45,0,0,1-.19.15l-.08.06,0,0-.21.12s-.1,0-.13,0a.3.3,0,0,1-.21.05.22.22,0,0,1-.14.05c-.12,0-.17,0-.23,0a.44.44,0,0,0-.17,0l-.17,0a.49.49,0,0,1-.19,0,.52.52,0,0,1-.16-.07l-.19,0-.06,0s-.07-.05-.09-.07-.11-.06-.14-.12-.11-.09-.15-.11l-.12-.13a.28.28,0,0,0-.19-.16Z" style="fill: rgb(235, 235, 235); transform-origin: 248.762px 191.052px;" id="eln439obdme4k" class="animable"></path><path d="M66.88,143.2a2.65,2.65,0,0,1,2.78,0l.72.4c.24.14.49.26.74.38a2.64,2.64,0,0,1,1.55,2.3l.11,3.43,11.16-.35-.1-3.42a2.62,2.62,0,0,1,1.4-2.41,15.81,15.81,0,0,0,1.41-.88,2.64,2.64,0,0,1,2.77-.17l3,1.61,5.28-9.84-3-1.62a2.66,2.66,0,0,1-1.38-2.41,15.35,15.35,0,0,0-.06-1.66,2.68,2.68,0,0,1,1.23-2.5l2.92-1.81-5.89-9.49-2.93,1.82a2.68,2.68,0,0,1-2.77,0c-.23-.15-.47-.28-.72-.41s-.48-.26-.73-.37a2.67,2.67,0,0,1-1.56-2.31l-.1-3.43-11.16.34.11,3.42a2.66,2.66,0,0,1-1.4,2.41,14.65,14.65,0,0,0-1.42.88,2.68,2.68,0,0,1-2.78.18l-3-1.62-5.28,9.85,3,1.61a2.66,2.66,0,0,1,1.39,2.41,15.45,15.45,0,0,0,0,1.67,2.65,2.65,0,0,1-1.23,2.5l-2.91,1.8L64,145Zm2.8-17.63A9.15,9.15,0,1,1,73.42,138,9.15,9.15,0,0,1,69.68,125.57Z" style="fill: rgb(235, 235, 235); transform-origin: 77.74px 129.885px;" id="el47a8rokfq62" class="animable"></path><path d="M416.53,61.49a1.85,1.85,0,0,1,.91,1.73c0,.19,0,.38,0,.57s0,.39,0,.58a1.88,1.88,0,0,1-.91,1.73l-2.08,1.2,3.91,6.77,2.08-1.2a1.87,1.87,0,0,1,1.95.07c.33.21.66.41,1,.59a1.85,1.85,0,0,1,1,1.65v2.39h7.82V75.18a1.87,1.87,0,0,1,1-1.65,11.12,11.12,0,0,0,1-.59,1.87,1.87,0,0,1,1.95-.07l2.08,1.2,3.91-6.77-2.09-1.21a1.84,1.84,0,0,1-.9-1.72c0-.19,0-.38,0-.58s0-.38,0-.57a1.85,1.85,0,0,1,.91-1.73l2.08-1.2-3.91-6.77-2.07,1.19a1.85,1.85,0,0,1-1.95-.06c-.33-.21-.67-.41-1-.59a1.87,1.87,0,0,1-1-1.65V50h-7.82v2.4a1.87,1.87,0,0,1-1,1.65,11.12,11.12,0,0,0-1,.59,1.87,1.87,0,0,1-2,.06l-2.07-1.19-3.91,6.77Zm11.81-4.11a6.41,6.41,0,1,1-6.41,6.41A6.42,6.42,0,0,1,428.34,57.38Z" style="fill: rgb(235, 235, 235); transform-origin: 428.285px 63.785px;" id="elm8fgfvwe37b" class="animable"></path><path d="M362.94,155.51A30.47,30.47,0,1,0,393.41,125,30.48,30.48,0,0,0,362.94,155.51Zm16.24,0a14.24,14.24,0,1,1,14.23,14.22A14.24,14.24,0,0,1,379.18,155.51Z" style="fill: rgb(235, 235, 235); transform-origin: 393.41px 155.47px;" id="el0j3h0i685xmf" class="animable"></path><polygon points="387.55 126.3 399.27 126.3 398.62 118 388.2 118 387.55 126.3" style="fill: rgb(235, 235, 235); transform-origin: 393.41px 122.15px;" id="elgq9r51sjulq" class="animable"></polygon><polygon points="409.86 130.25 418.14 138.53 423.55 132.21 416.18 124.84 409.86 130.25" style="fill: rgb(235, 235, 235); transform-origin: 416.705px 131.685px;" id="elf4slkct96zc" class="animable"></polygon><polygon points="422.84 148.81 422.84 160.53 431.13 159.88 431.13 149.46 422.84 148.81" style="fill: rgb(235, 235, 235); transform-origin: 426.985px 154.67px;" id="elw7sqwkathy" class="animable"></polygon><polygon points="418.89 171.11 410.6 179.4 416.93 184.81 424.3 177.44 418.89 171.11" style="fill: rgb(235, 235, 235); transform-origin: 417.45px 177.96px;" id="el9ltencs8vhg" class="animable"></polygon><polygon points="400.32 184.09 388.61 184.09 389.25 192.39 399.68 192.39 400.32 184.09" style="fill: rgb(235, 235, 235); transform-origin: 394.465px 188.24px;" id="elb8lflf6kroq" class="animable"></polygon><polygon points="378.02 180.14 369.74 171.86 364.33 178.18 371.7 185.55 378.02 180.14" style="fill: rgb(235, 235, 235); transform-origin: 371.175px 178.705px;" id="elf67phpgzvzi" class="animable"></polygon><polygon points="365.04 161.58 365.04 149.86 356.75 150.51 356.75 160.93 365.04 161.58" style="fill: rgb(235, 235, 235); transform-origin: 360.895px 155.72px;" id="elz6mgflxhx7n" class="animable"></polygon><polygon points="368.99 139.28 377.28 130.99 370.95 125.58 363.58 132.96 368.99 139.28" style="fill: rgb(235, 235, 235); transform-origin: 370.43px 132.43px;" id="elj54xr23z3l" class="animable"></polygon><path d="M109.52,265.19A30.47,30.47,0,1,0,140,234.72,30.47,30.47,0,0,0,109.52,265.19Zm16.23,0A14.24,14.24,0,1,1,140,279.41,14.25,14.25,0,0,1,125.75,265.19Z" style="fill: rgb(235, 235, 235); transform-origin: 139.99px 265.19px;" id="elo4o34m53fug" class="animable"></path><polygon points="134.13 235.98 145.85 235.98 145.2 227.68 134.78 227.68 134.13 235.98" style="fill: rgb(235, 235, 235); transform-origin: 139.99px 231.83px;" id="el5otzmati2va" class="animable"></polygon><polygon points="156.43 239.93 164.72 248.21 170.13 241.89 162.75 234.52 156.43 239.93" style="fill: rgb(235, 235, 235); transform-origin: 163.28px 241.365px;" id="elb90ddpaq9jr" class="animable"></polygon><polygon points="169.41 258.49 169.41 270.21 177.71 269.56 177.71 259.14 169.41 258.49" style="fill: rgb(235, 235, 235); transform-origin: 173.56px 264.35px;" id="elzs530mfe8ml" class="animable"></polygon><polygon points="165.46 280.79 157.18 289.08 163.5 294.49 170.87 287.12 165.46 280.79" style="fill: rgb(235, 235, 235); transform-origin: 164.025px 287.64px;" id="ely73jsyxyut" class="animable"></polygon><polygon points="146.9 293.77 135.18 293.77 135.83 302.07 146.25 302.07 146.9 293.77" style="fill: rgb(235, 235, 235); transform-origin: 141.04px 297.92px;" id="elxx89pbir3b" class="animable"></polygon><polygon points="124.6 289.82 116.31 281.54 110.9 287.86 118.27 295.23 124.6 289.82" style="fill: rgb(235, 235, 235); transform-origin: 117.75px 288.385px;" id="el2toguffmoeo" class="animable"></polygon><polygon points="111.62 271.26 111.62 259.54 103.32 260.19 103.32 270.61 111.62 271.26" style="fill: rgb(235, 235, 235); transform-origin: 107.47px 265.4px;" id="elg71rdjqgald" class="animable"></polygon><polygon points="115.56 248.96 123.85 240.67 117.53 235.26 110.16 242.63 115.56 248.96" style="fill: rgb(235, 235, 235); transform-origin: 117.005px 242.11px;" id="elpi3ns2g5bpd" class="animable"></polygon><g id="elmfhy0hrb63s"><rect x="316.21" y="26.96" width="67.79" height="103.41" style="fill: rgb(235, 235, 235); transform-origin: 350.105px 78.665px; transform: rotate(-90deg);" class="animable"></rect></g><g id="elo91bg43gmea"><rect x="360.34" y="71.56" width="28.65" height="46" style="fill: rgb(255, 255, 255); transform-origin: 374.665px 94.56px; transform: rotate(-90deg);" class="animable"></rect></g><g id="elqga3358s9n"><rect x="360.34" y="39.78" width="28.65" height="46" style="fill: rgb(255, 255, 255); transform-origin: 374.665px 62.78px; transform: rotate(-90deg);" class="animable"></rect></g><g id="eltjgz9b73krq"><rect x="311.21" y="71.56" width="28.65" height="46" style="fill: rgb(255, 255, 255); transform-origin: 325.535px 94.56px; transform: rotate(-90deg);" class="animable"></rect></g><g id="elzx0gqwhi4ob"><rect x="311.21" y="39.78" width="28.65" height="46" style="fill: rgb(255, 255, 255); transform-origin: 325.535px 62.78px; transform: rotate(-90deg);" class="animable"></rect></g><g id="el568imutuwer"><polygon points="306.64 80.23 322.86 80.23 302.54 100.55 302.54 84.33 306.64 80.23" style="fill: rgb(235, 235, 235); opacity: 0.2; transform-origin: 312.7px 90.39px;" class="animable"></polygon></g><g id="elg6km3eqvyvu"><polygon points="348.54 48.45 348.54 54.55 325.99 77.1 309.77 77.1 338.42 48.45 348.54 48.45" style="fill: rgb(235, 235, 235); opacity: 0.2; transform-origin: 329.155px 62.775px;" class="animable"></polygon></g><g id="el5nb1ogfzc29"><polygon points="354.64 48.45 351.67 51.42 351.67 48.45 354.64 48.45" style="fill: rgb(235, 235, 235); opacity: 0.2; transform-origin: 353.155px 49.935px;" class="animable"></polygon></g><g id="elcoct9ozjfi6"><polygon points="337.12 108.89 348.54 97.46 348.54 108.89 337.12 108.89" style="fill: rgb(235, 235, 235); opacity: 0.2; transform-origin: 342.83px 103.175px;" class="animable"></polygon></g><g id="elgi36lnqrdx"><polygon points="365.77 80.23 382 80.23 353.34 108.89 351.67 108.89 351.67 94.33 365.77 80.23" style="fill: rgb(235, 235, 235); opacity: 0.2; transform-origin: 366.835px 94.56px;" class="animable"></polygon></g><g id="el4cbxybi82p5"><polygon points="397.67 48.45 397.67 64.56 385.13 77.1 368.9 77.1 397.55 48.45 397.67 48.45" style="fill: rgb(235, 235, 235); opacity: 0.2; transform-origin: 383.285px 62.775px;" class="animable"></polygon></g><g id="elk07n4u87ez8"><polygon points="330.16 48.45 302.54 76.07 302.54 67.95 322.04 48.45 330.16 48.45" style="fill: rgb(235, 235, 235); opacity: 0.2; transform-origin: 316.35px 62.26px;" class="animable"></polygon></g><g id="el3r5rviui115"><polygon points="397.67 84.69 397.67 92.8 381.58 108.89 373.47 108.89 397.67 84.69" style="fill: rgb(235, 235, 235); opacity: 0.2; transform-origin: 385.57px 96.79px;" class="animable"></polygon></g><g id="eltnwb8b7bx3g"><polygon points="330.03 108.89 348.54 90.38 348.54 92.4 332.05 108.89 330.03 108.89" style="fill: rgb(235, 235, 235); opacity: 0.2; transform-origin: 339.285px 99.635px;" class="animable"></polygon></g><g id="elkd51ktpwd0j"><polygon points="360.71 80.23 351.67 89.27 351.67 87.25 358.69 80.23 360.71 80.23" style="fill: rgb(235, 235, 235); opacity: 0.2; transform-origin: 356.19px 84.75px;" class="animable"></polygon></g><g id="elotq6ngghth"><polygon points="392.49 48.45 363.84 77.1 361.82 77.1 390.47 48.45 392.49 48.45" style="fill: rgb(235, 235, 235); opacity: 0.2; transform-origin: 377.155px 62.775px;" class="animable"></polygon></g><g id="el6yvvc8rbmf6"><polygon points="396.35 80.23 367.69 108.89 365.67 108.89 394.33 80.23 396.35 80.23" style="fill: rgb(235, 235, 235); opacity: 0.2; transform-origin: 381.01px 94.56px;" class="animable"></polygon></g><g id="el3bukayhzsb8"><polygon points="397.67 76.89 397.67 77.1 397.46 77.1 397.67 76.89" style="fill: rgb(235, 235, 235); opacity: 0.2; transform-origin: 397.565px 76.995px;" class="animable"></polygon></g><g id="el5xl5telcei7"><rect x="116" y="26.96" width="67.79" height="103.41" style="fill: rgb(235, 235, 235); transform-origin: 149.895px 78.665px; transform: rotate(-90deg);" class="animable"></rect></g><g id="elf3zwn73a0cv"><rect x="160.14" y="71.56" width="28.65" height="46" style="fill: rgb(255, 255, 255); transform-origin: 174.465px 94.56px; transform: rotate(-90deg);" class="animable"></rect></g><g id="elmw7hqv2v5u"><rect x="160.14" y="39.78" width="28.65" height="46" style="fill: rgb(255, 255, 255); transform-origin: 174.465px 62.78px; transform: rotate(-90deg);" class="animable"></rect></g><g id="el74i24qx2mb8"><rect x="111.01" y="71.56" width="28.65" height="46" style="fill: rgb(255, 255, 255); transform-origin: 125.335px 94.56px; transform: rotate(-90deg);" class="animable"></rect></g><g id="el9bxbzvqupaj"><rect x="111.01" y="39.78" width="28.65" height="46" style="fill: rgb(255, 255, 255); transform-origin: 125.335px 62.78px; transform: rotate(-90deg);" class="animable"></rect></g><g id="elu73d5yajikj"><polygon points="106.43 80.23 122.65 80.23 102.33 100.55 102.33 84.33 106.43 80.23" style="fill: rgb(235, 235, 235); opacity: 0.2; transform-origin: 112.49px 90.39px;" class="animable"></polygon></g><g id="elwa26peoxr3"><polygon points="148.33 48.45 148.33 54.55 125.78 77.1 109.56 77.1 138.21 48.45 148.33 48.45" style="fill: rgb(235, 235, 235); opacity: 0.2; transform-origin: 128.945px 62.775px;" class="animable"></polygon></g><g id="eloaflib47g3"><polygon points="154.43 48.45 151.46 51.42 151.46 48.45 154.43 48.45" style="fill: rgb(235, 235, 235); opacity: 0.2; transform-origin: 152.945px 49.935px;" class="animable"></polygon></g><g id="eliwkqkuv239"><polygon points="136.91 108.89 148.33 97.46 148.33 108.89 136.91 108.89" style="fill: rgb(235, 235, 235); opacity: 0.2; transform-origin: 142.62px 103.175px;" class="animable"></polygon></g><g id="elp0x60uekhme"><polygon points="165.56 80.23 181.79 80.23 153.13 108.89 151.46 108.89 151.46 94.33 165.56 80.23" style="fill: rgb(235, 235, 235); opacity: 0.2; transform-origin: 166.625px 94.56px;" class="animable"></polygon></g><g id="elj68a2twsbh"><polygon points="197.46 48.45 197.46 64.56 184.92 77.1 168.69 77.1 197.34 48.45 197.46 48.45" style="fill: rgb(235, 235, 235); opacity: 0.2; transform-origin: 183.075px 62.775px;" class="animable"></polygon></g><g id="ely627rw3wbq"><polygon points="129.95 48.45 102.33 76.07 102.33 67.95 121.83 48.45 129.95 48.45" style="fill: rgb(235, 235, 235); opacity: 0.2; transform-origin: 116.14px 62.26px;" class="animable"></polygon></g><g id="elg8uqwkv6ik5"><polygon points="197.46 84.69 197.46 92.8 181.37 108.89 173.26 108.89 197.46 84.69" style="fill: rgb(235, 235, 235); opacity: 0.2; transform-origin: 185.36px 96.79px;" class="animable"></polygon></g><g id="el8td2g52pkvk"><polygon points="129.82 108.89 148.33 90.38 148.33 92.4 131.84 108.89 129.82 108.89" style="fill: rgb(235, 235, 235); opacity: 0.2; transform-origin: 139.075px 99.635px;" class="animable"></polygon></g><g id="elekpyfkzf45l"><polygon points="160.5 80.23 151.46 89.27 151.46 87.25 158.48 80.23 160.5 80.23" style="fill: rgb(235, 235, 235); opacity: 0.2; transform-origin: 155.98px 84.75px;" class="animable"></polygon></g><g id="eltx3kjcah6wd"><polygon points="192.28 48.45 163.63 77.1 161.61 77.1 190.26 48.45 192.28 48.45" style="fill: rgb(235, 235, 235); opacity: 0.2; transform-origin: 176.945px 62.775px;" class="animable"></polygon></g><g id="el8445autc5ax"><polygon points="196.14 80.23 167.48 108.89 165.46 108.89 194.12 80.23 196.14 80.23" style="fill: rgb(235, 235, 235); opacity: 0.2; transform-origin: 180.8px 94.56px;" class="animable"></polygon></g><g id="eleaihdvxsc0j"><polygon points="197.46 76.89 197.46 77.1 197.25 77.1 197.46 76.89" style="fill: rgb(235, 235, 235); opacity: 0.2; transform-origin: 197.355px 76.995px;" class="animable"></polygon></g></g><g id="freepik--Floor--inject-252" class="animable" style="transform-origin: 250px 451.395px;"><polygon points="50.27 451.39 100.2 451.15 150.13 451.06 250 450.9 349.87 451.06 399.8 451.15 449.73 451.39 399.8 451.64 349.87 451.73 250 451.89 150.13 451.73 100.2 451.64 50.27 451.39" style="fill: rgb(38, 50, 56); transform-origin: 250px 451.395px;" id="el7blie0gmccn" class="animable"></polygon></g><g id="freepik--Data--inject-252" class="animable" style="transform-origin: 216.592px 187.563px;"><path d="M233.37,168.26l-6.53,24.57a2.39,2.39,0,0,1-2.94,1.66,2.33,2.33,0,0,1-1.68-2.89l5.45-20.49-1.93.52a2.14,2.14,0,0,1-1.25,0,2.41,2.41,0,0,1-.07-4.61l5.93-1.68c.06,0,.14,0,.19,0s.15-.06.24-.07.18,0,.26,0a.28.28,0,0,1,.18,0,.73.73,0,0,1,.3,0l.13,0h0l.29.08a.29.29,0,0,0,.16.09.4.4,0,0,1,.22.15.25.25,0,0,1,.16.08c.1.12.13.17.22.19a.48.48,0,0,0,.13.17s.1.12.13.17a.46.46,0,0,1,.12.21.53.53,0,0,1,.09.2l.12.21,0,.1s0,.09,0,.13,0,.15,0,.23,0,.18,0,.23a2,2,0,0,0,0,.22.36.36,0,0,0,0,.32Z" style="fill: rgb(69, 90, 100); transform-origin: 227.752px 179.916px;" id="eltkgwo2ibt68" class="animable"></path><path d="M193.89,161.69a18.47,18.47,0,0,1,2.93-10.3,9.07,9.07,0,0,1,16,0,19.78,19.78,0,0,1,0,20.59,9.07,9.07,0,0,1-16,0A18.53,18.53,0,0,1,193.89,161.69Zm17,0a14.27,14.27,0,0,0-2.07-7.67c-1.25-1.81-2.67-2.67-4-2.63s-2.8.82-4.09,2.63a14.27,14.27,0,0,0-2.07,7.67,14.11,14.11,0,0,0,2.07,7.62c1.29,1.85,2.76,2.67,4.09,2.67s2.76-.82,4-2.67A14.11,14.11,0,0,0,210.91,161.69Z" style="fill: rgb(38, 50, 56); transform-origin: 204.799px 161.685px;" id="elcaijdi60uxi" class="animable"></path><path d="M216.62,205.75a18.55,18.55,0,0,1-.54-10.69,9.07,9.07,0,0,1,15.14-5.13,19.79,19.79,0,0,1,6.61,19.5c-.84,3.15-2.87,6-6,7.09s-6.54,0-9.13-2A18.59,18.59,0,0,1,216.62,205.75Zm16.11-5.46a14.19,14.19,0,0,0-4.42-6.6c-1.76-1.32-3.39-1.67-4.63-1.21s-2.4,1.68-3,3.81a15.15,15.15,0,0,0,4.91,14.48c1.82,1.34,3.47,1.65,4.74,1.22s2.34-1.66,2.93-3.82A14.15,14.15,0,0,0,232.73,200.29Z" style="fill: rgb(38, 50, 56); transform-origin: 226.923px 202.218px;" id="eld9r8bkrl9jt" class="animable"></path><path d="M193.26,183.45l16.49,19.34a2.4,2.4,0,0,1-.3,3.37,2.33,2.33,0,0,1-3.34-.27l-13.75-16.12-.67,1.87a2.17,2.17,0,0,1-.69,1,2.41,2.41,0,0,1-3.83-2.56l2-5.83c0-.06.07-.12.07-.18s.05-.15.08-.24.11-.15.17-.2a.23.23,0,0,1,.11-.14.56.56,0,0,1,.2-.23l.1-.09,0,0,.23-.2a.3.3,0,0,0,.16-.08.44.44,0,0,1,.25-.1.27.27,0,0,1,.16-.08c.15,0,.21,0,.28-.07a.52.52,0,0,0,.21,0l.22,0a.86.86,0,0,1,.24,0,.69.69,0,0,1,.21,0l.24,0,.09,0s.09,0,.12.07.15,0,.2.11.15.1.21.1.15.11.17.14.14.16.27.17Z" style="fill: rgb(38, 50, 56); transform-origin: 198.687px 194.686px;" id="eldjnc3ap6i4g" class="animable"></path><path d="M221.75,149.39l-13.25-21.7a2.41,2.41,0,0,1,.83-3.28,2.35,2.35,0,0,1,3.26.79l11,18.09,1-1.74a2.06,2.06,0,0,1,.85-.92,2.41,2.41,0,0,1,3.37,3.13l-2.88,5.45c0,.06-.09.1-.1.16s-.07.14-.12.22-.13.13-.2.18-.09.1-.12.12a.91.91,0,0,1-.24.2l-.11.06,0,0-.26.15a.31.31,0,0,0-.17,0,.48.48,0,0,1-.27.07.29.29,0,0,1-.17.05c-.15,0-.21,0-.28,0l-.22,0a1.49,1.49,0,0,1-.21,0,.72.72,0,0,1-.24,0,.75.75,0,0,1-.2-.08l-.24-.06-.08,0s-.08-.05-.1-.09a.55.55,0,0,1-.19-.14c-.08,0-.13-.12-.19-.14s-.12-.12-.14-.16-.11-.18-.24-.21Z" style="fill: rgb(38, 50, 56); transform-origin: 218.607px 137.242px;" id="el4tq4d0vb3m" class="animable"></path><path d="M246,226.82l-11,22.92a2.4,2.4,0,0,1-3.2,1.09,2.33,2.33,0,0,1-1.11-3.16l9.16-19.11-2,.14a2.08,2.08,0,0,1-1.23-.21,2.41,2.41,0,0,1,.79-4.54l6.14-.54c.06,0,.13,0,.19,0s.16,0,.25,0,.18,0,.25.07a.27.27,0,0,1,.18,0,.75.75,0,0,1,.29.09l.11.06h0l.27.13a.31.31,0,0,0,.14.12c.12,0,.14.11.2.19s.11,0,.13.11.1.19.18.23a.58.58,0,0,0,.1.19c0,.06.08.14.1.19a.63.63,0,0,1,.08.23.6.6,0,0,1,0,.21l.08.23v.1s0,.1,0,.13a.47.47,0,0,1,0,.24c0,.09,0,.17,0,.23a1.89,1.89,0,0,0-.06.21.39.39,0,0,0,0,.31Z" style="fill: rgb(38, 50, 56); transform-origin: 238.28px 237.241px;" id="elosi4scc4yek" class="animable"></path></g><g id="freepik--Machine--inject-252" class="animable" style="transform-origin: 320.25px 315.255px;"><polygon points="445.6 438.02 280.67 438.02 276.53 451.39 449.73 451.39 445.6 438.02" style="fill: rgb(55, 71, 79); transform-origin: 363.13px 444.705px;" id="ellz6iaw745kq" class="animable"></polygon><polygon points="291.01 240.93 435.25 240.93 445.6 294.87 280.67 294.87 291.01 240.93" style="fill: rgb(55, 71, 79); transform-origin: 363.135px 267.9px;" id="elox3bmm0mne" class="animable"></polygon><polygon points="249.06 305.94 280.67 305.94 280.67 348.52 235.61 348.52 249.06 305.94" style="fill: rgb(219, 219, 219); transform-origin: 258.14px 327.23px;" id="elbp0v4demvzw" class="animable"></polygon><polygon points="249.06 259.14 249.06 305.94 206.48 314.91 206.48 259.14 249.06 259.14" style="fill: rgb(219, 219, 219); transform-origin: 227.77px 287.025px;" id="el7p7o6ctdq97" class="animable"></polygon><polygon points="235.61 348.52 206.48 314.91 249.06 305.94 235.61 348.52" style="fill: rgb(219, 219, 219); transform-origin: 227.77px 327.23px;" id="ele8tneqieiwb" class="animable"></polygon><polygon points="208.75 317.53 206.48 314.91 249.06 305.94 208.75 317.53" style="fill: rgb(199, 199, 199); transform-origin: 227.77px 311.735px;" id="elgighd6pjyvm" class="animable"></polygon><polygon points="235.61 348.52 232.67 345.12 249.06 305.94 235.61 348.52" style="fill: rgb(199, 199, 199); transform-origin: 240.865px 327.23px;" id="el0lzl5nttlpz" class="animable"></polygon><polygon points="264.77 232.6 190.77 232.6 206.48 259.14 249.06 259.14 264.77 232.6" style="fill: rgb(219, 219, 219); transform-origin: 227.77px 245.87px;" id="elqchusuwqpmk" class="animable"></polygon><rect x="190.77" y="229.19" width="74" height="3.42" style="fill: rgb(199, 199, 199); transform-origin: 227.77px 230.9px;" id="elm52f4f2qny" class="animable"></rect><polygon points="249.06 259.14 206.48 259.14 206.48 263.08 248.95 260.43 249.06 259.14" style="fill: rgb(199, 199, 199); transform-origin: 227.77px 261.11px;" id="elysodu5irlb" class="animable"></polygon><path d="M206.48,232.6c2.43,4.4,4.88,8.78,7.26,13.21l7.2,13.24,0,0v.05l0,13.19L221,285.52l-.06,13.19-.13,13.19-.14-13.19-.05-13.19-.06-13.19,0-13.19,0,.1-7.09-13.3C211.12,241.52,208.82,237.05,206.48,232.6Z" style="fill: rgb(199, 199, 199); transform-origin: 213.74px 272.25px;" id="elxu6ad09305a" class="animable"></path><path d="M239.46,336.34c3.43-.1,6.87-.16,10.3-.2l10.3-.05,10.31.05c3.43,0,6.86.1,10.3.2q-5.16.14-10.3.19l-10.31.06-10.3-.06C246.33,336.49,242.89,336.43,239.46,336.34Z" style="fill: rgb(199, 199, 199); transform-origin: 260.065px 336.34px;" id="el0rpswzppwxb" class="animable"></path><path d="M218.63,267.71a1.27,1.27,0,0,1-1.14,1.26,1.31,1.31,0,0,1-1-.3,1.29,1.29,0,0,1-.43-1,1.27,1.27,0,0,1,.43-.95,1.32,1.32,0,0,1,1-.31A1.28,1.28,0,0,1,218.63,267.71Zm0,0a1,1,0,1,0-1.14,1A1,1,0,0,0,218.63,267.71Z" style="fill: rgb(199, 199, 199); transform-origin: 217.345px 267.691px;" id="eloue3t8lm3uc" class="animable"></path><path d="M216.66,256.62a1.26,1.26,0,1,1-1.14-1.26A1.27,1.27,0,0,1,216.66,256.62Zm0,0a1,1,0,1,0-2,0,1,1,0,0,0,.88,1A1,1,0,0,0,216.66,256.62Z" style="fill: rgb(199, 199, 199); transform-origin: 215.4px 256.614px;" id="elj3h1jdyzgpf" class="animable"></path><path d="M211.5,247a1.28,1.28,0,0,1-1.14,1.26,1.32,1.32,0,0,1-1-.31,1.27,1.27,0,0,1-.43-1,1.25,1.25,0,0,1,1.38-1.26A1.27,1.27,0,0,1,211.5,247Zm0,0a1,1,0,0,0-1.14-1,1,1,0,0,0-.88,1,1,1,0,1,0,2,0Z" style="fill: rgb(199, 199, 199); transform-origin: 210.215px 246.975px;" id="elt0a61vb5v9o" class="animable"></path><path d="M206.48,237.39a1.26,1.26,0,0,1-1.13,1.26,1.27,1.27,0,0,1-1-2.21,1.33,1.33,0,0,1,1-.31A1.28,1.28,0,0,1,206.48,237.39Zm0,0a1,1,0,0,0-1.13-1,1,1,0,0,0,0,2A1,1,0,0,0,206.48,237.39Z" style="fill: rgb(199, 199, 199); transform-origin: 205.202px 237.391px;" id="el3qp3k01yw6a" class="animable"></path><path d="M218.63,279.59a1.27,1.27,0,0,1-1.14,1.26,1.32,1.32,0,0,1-1-.31,1.27,1.27,0,0,1-.43-1,1.25,1.25,0,0,1,1.38-1.26A1.27,1.27,0,0,1,218.63,279.59Zm0,0a1,1,0,1,0-1.14,1A1,1,0,0,0,218.63,279.59Z" style="fill: rgb(199, 199, 199); transform-origin: 217.345px 279.565px;" id="elv7tzcfr7so" class="animable"></path><path d="M218.63,291.46a1.27,1.27,0,0,1-1.14,1.26,1.31,1.31,0,0,1-1-.3,1.29,1.29,0,0,1-.43-1,1.27,1.27,0,0,1,.43-.95,1.32,1.32,0,0,1,1-.31A1.28,1.28,0,0,1,218.63,291.46Zm0,0a1,1,0,1,0-1.14,1A1,1,0,0,0,218.63,291.46Z" style="fill: rgb(199, 199, 199); transform-origin: 217.345px 291.441px;" id="els452h42vlyr" class="animable"></path><path d="M218.63,303.34a1.28,1.28,0,0,1-1.14,1.26,1.32,1.32,0,0,1-1-.31,1.27,1.27,0,0,1-.43-1,1.25,1.25,0,0,1,1.38-1.26A1.27,1.27,0,0,1,218.63,303.34Zm0,0a1,1,0,1,0-1.14,1A1,1,0,0,0,218.63,303.34Z" style="fill: rgb(199, 199, 199); transform-origin: 217.345px 303.315px;" id="elph802eiajeo" class="animable"></path><path d="M242,338a1.27,1.27,0,0,1,1.26,1.14,1.31,1.31,0,0,1-.3.95,1.29,1.29,0,0,1-1,.43,1.26,1.26,0,0,1,0-2.52Zm0,0a1,1,0,1,0,1,1.14A1,1,0,0,0,242,338Z" style="fill: rgb(199, 199, 199); transform-origin: 241.982px 339.26px;" id="elppbsj3tchts" class="animable"></path><path d="M253.86,338a1.26,1.26,0,1,1-1.26,1.14A1.27,1.27,0,0,1,253.86,338Zm0,0a1,1,0,1,0,1,1.14A1,1,0,0,0,253.86,338Z" style="fill: rgb(199, 199, 199); transform-origin: 253.854px 339.26px;" id="elfhzlii0lgoh" class="animable"></path><path d="M265.73,338a1.27,1.27,0,0,1,1.26,1.14,1.31,1.31,0,0,1-.3.95,1.29,1.29,0,0,1-1,.43,1.26,1.26,0,0,1,0-2.52Zm0,0a1,1,0,1,0,1,1.14A1,1,0,0,0,265.73,338Z" style="fill: rgb(199, 199, 199); transform-origin: 265.712px 339.26px;" id="elp9v8nvrlo1" class="animable"></path><path d="M277.61,338a1.27,1.27,0,0,1,1.26,1.14,1.32,1.32,0,0,1-.31.95,1.27,1.27,0,0,1-.95.43,1.25,1.25,0,0,1-1.26-1.38A1.27,1.27,0,0,1,277.61,338Zm0,0a1,1,0,1,0,1,1.14A1,1,0,0,0,277.61,338Z" style="fill: rgb(199, 199, 199); transform-origin: 277.608px 339.26px;" id="el03z1dpgcwyoh" class="animable"></path><rect x="291.01" y="179.12" width="144.25" height="61.8" style="fill: rgb(69, 90, 100); transform-origin: 363.135px 210.02px;" id="elkdqaqqcaejn" class="animable"></rect><rect x="296.5" y="184.42" width="133.26" height="51.1" style="fill: rgb(38, 50, 56); transform-origin: 363.13px 209.97px;" id="elqsn1h7q7qpl" class="animable"></rect><path d="M303.61,195.79c19.84-.07,39.68,0,59.52-.08s39.69,0,59.53.08c-19.84.07-39.68.05-59.53.08S323.45,195.86,303.61,195.79Z" style="fill: rgb(69, 90, 100); transform-origin: 363.135px 195.778px;" id="elzp2psohyx7r" class="animable"></path><path d="M303.61,202.29c19.84-.07,39.68,0,59.52-.08s39.69,0,59.53.08c-19.84.07-39.68.05-59.53.08S323.45,202.36,303.61,202.29Z" style="fill: rgb(69, 90, 100); transform-origin: 363.135px 202.278px;" id="elleayqwt9ur" class="animable"></path><path d="M303.61,208.79c19.84-.07,39.68,0,59.52-.08s39.69,0,59.53.08c-19.84.07-39.68.05-59.53.08S323.45,208.86,303.61,208.79Z" style="fill: rgb(69, 90, 100); transform-origin: 363.135px 208.778px;" id="el9lx62hw98uk" class="animable"></path><path d="M303.61,215.29c19.84-.07,39.68,0,59.52-.08s39.69,0,59.53.08c-19.84.07-39.68.05-59.53.08S323.45,215.36,303.61,215.29Z" style="fill: rgb(69, 90, 100); transform-origin: 363.135px 215.278px;" id="elk5c844eavvb" class="animable"></path><path d="M303.61,221.79c19.84-.06,39.68,0,59.52-.08s39.69,0,59.53.08c-19.84.07-39.68.05-59.53.08S323.45,221.86,303.61,221.79Z" style="fill: rgb(69, 90, 100); transform-origin: 363.135px 221.778px;" id="el0grza34rx7d" class="animable"></path><path d="M327.58,191.56c.17,6.07.13,12.15.2,18.22s0,12.15-.2,18.23c-.18-6.08-.13-12.15-.21-18.23C327.45,203.71,327.4,197.63,327.58,191.56Z" style="fill: rgb(69, 90, 100); transform-origin: 327.588px 209.785px;" id="elbo2bleb951" class="animable"></path><path d="M348.16,191.56c.18,6.07.14,12.15.21,18.22s0,12.15-.21,18.23c-.17-6.08-.13-12.15-.2-18.23S348,197.63,348.16,191.56Z" style="fill: rgb(69, 90, 100); transform-origin: 348.167px 209.785px;" id="elu9wx2b7r3x" class="animable"></path><path d="M368.75,191.56c.18,6.07.13,12.15.21,18.22-.08,6.08,0,12.15-.21,18.23-.17-6.08-.13-12.15-.2-18.23S368.58,197.63,368.75,191.56Z" style="fill: rgb(69, 90, 100); transform-origin: 368.744px 209.785px;" id="eldknso2owg6m" class="animable"></path><path d="M389.34,191.56c.17,6.07.13,12.15.2,18.22s0,12.15-.2,18.23c-.18-6.08-.13-12.15-.2-18.23S389.17,197.63,389.34,191.56Z" style="fill: rgb(69, 90, 100); transform-origin: 389.342px 209.785px;" id="eluslzz1sy1v" class="animable"></path><path d="M409.93,191.56c.17,6.07.13,12.15.2,18.22s0,12.15-.2,18.23c-.18-6.08-.13-12.15-.21-18.23C409.8,203.71,409.75,197.63,409.93,191.56Z" style="fill: rgb(69, 90, 100); transform-origin: 409.938px 209.785px;" id="elukal0ay504s" class="animable"></path><g id="elmtxgnexai"><path d="M306.61,217.08c3.63,0,5.8-6.61,10.94-6.61s5.69,4.82,10,4.82,4.2-8.46,10-8.46,4.47,3.43,10.56,3.43,3.8-8,10.16-8,3.8,11,10.43,11c4.2,0,5.83-3.49,10.84-3.49,3.32,0,5.27,1.75,9.61,1.75s5.29-6.71,10.71-6.71,6,4,10,4,5.42-6.5,12.73-6.5V228h-116Z" style="fill: rgb(59, 127, 188); opacity: 0.5; transform-origin: 364.59px 215.13px;" class="animable"></path></g><path d="M306.61,217.4v-.64c1.1,0,2.61-1.54,3.72-2.67,1.9-1.93,3.87-3.93,7.22-3.93a8.34,8.34,0,0,1,6.24,2.75c1.11,1,2.25,2.06,3.79,2.06,1.35,0,2.53-2,3.38-3.51,1.41-2.44,2.86-5,6.64-5a8.3,8.3,0,0,1,5.86,1.86,6.6,6.6,0,0,0,4.7,1.57c2.35,0,3.26-1.86,4.15-3.66,1-2.12,2.12-4.31,6-4.31s4.85,2.76,5.89,5.68c.85,2.36,1.9,5.31,4.54,5.31a8.62,8.62,0,0,0,4.24-1.5,12.41,12.41,0,0,1,6.6-2,15,15,0,0,1,4.63.85,16,16,0,0,0,5,.89c1.5,0,2.88-1.59,4-2.88,1.62-1.88,3.29-3.83,6.73-3.83a9.63,9.63,0,0,1,6.57,2.39,5.81,5.81,0,0,0,3.45,1.58c1.14,0,2.44-1.23,3.59-2.32,2-1.86,4.39-4.18,9.14-4.18v.64c-3.66,0-5.77,2-7.64,3.78-1.59,1.52-2.85,2.72-5.09,2.72a7.34,7.34,0,0,1-4.9-1.93,7.82,7.82,0,0,0-5.12-2c-2.27,0-3.82,1.8-5.19,3.4-1.53,1.77-2.84,3.31-5.52,3.31a19,19,0,0,1-6-1,12.31,12.31,0,0,0-3.63-.72,10.19,10.19,0,0,0-5.26,1.73,10.64,10.64,0,0,1-5.58,1.76c-4.06,0-5.07-2.84-6.15-5.85-.82-2.29-1.84-5.13-4.28-5.13s-3.53,2-4.41,3.79c-1.06,2.15-2.06,4.18-5.75,4.18s-4.94-1-6.14-1.92a6.21,6.21,0,0,0-4.42-1.51c-2.48,0-3.9,2.46-5.05,4.45-1.29,2.24-2.32,4-5,4s-3.91-1.19-5.29-2.45-2.59-2.37-4.74-2.37-4.15,2-5.7,3.53C310.16,216,308.83,217.4,306.61,217.4Z" style="fill: rgb(59, 127, 188); transform-origin: 364.65px 209.655px;" id="el5poa8uhsyf2" class="animable"></path><path d="M306.61,192c.13,6,.24,12,.25,18l.13,18-.38-.15,58,0,29,0,29,.08-29,.08-29,0-58,0h-.39V228l.12-18C306.36,204,306.47,198,306.61,192Z" style="fill: rgb(69, 90, 100); transform-origin: 364.415px 210.005px;" id="el4pmy3iqzdlx" class="animable"></path><polygon points="319.53 283.09 317.71 283.09 321.45 251.55 323.11 251.55 319.53 283.09" style="fill: rgb(38, 50, 56); transform-origin: 320.41px 267.32px;" id="el4s9g8g7mk18" class="animable"></polygon><polygon points="325.61 255.5 318.11 255.5 318.3 253.98 325.77 253.98 325.61 255.5" style="fill: rgb(59, 127, 188); transform-origin: 321.94px 254.74px;" id="eln76vcpjmn2" class="animable"></polygon><polygon points="330.48 283.09 328.67 283.09 331.51 251.55 333.17 251.55 330.48 283.09" style="fill: rgb(38, 50, 56); transform-origin: 330.92px 267.32px;" id="elz5s2iuuf9br" class="animable"></polygon><polygon points="334.23 275.7 326.3 275.7 326.45 274.17 334.34 274.17 334.23 275.7" style="fill: rgb(59, 127, 188); transform-origin: 330.32px 274.935px;" id="el92jhxsx4bb6" class="animable"></polygon><polygon points="341.44 283.09 339.63 283.09 341.56 251.55 343.23 251.55 341.44 283.09" style="fill: rgb(38, 50, 56); transform-origin: 341.43px 267.32px;" id="elz4po4azr2xk" class="animable"></polygon><polygon points="345.77 259.25 338.19 259.25 338.29 257.72 345.84 257.72 345.77 259.25" style="fill: rgb(59, 127, 188); transform-origin: 342.015px 258.485px;" id="elzm8pcbrsydf" class="animable"></polygon><polygon points="352.4 283.09 350.58 283.09 351.62 251.55 353.28 251.55 352.4 283.09" style="fill: rgb(38, 50, 56); transform-origin: 351.93px 267.32px;" id="el6220rxps0cs" class="animable"></polygon><polygon points="355.96 263.62 348.28 263.62 348.35 262.1 355.99 262.1 355.96 263.62" style="fill: rgb(59, 127, 188); transform-origin: 352.135px 262.86px;" id="el8gnh3nwl6id" class="animable"></polygon><polygon points="302.35 254.81 296 254.81 296.61 251.55 302.91 251.55 302.35 254.81" style="fill: rgb(219, 219, 219); transform-origin: 299.455px 253.18px;" id="elnuzmyiow14n" class="animable"></polygon><polygon points="301.38 260.47 294.93 260.47 295.54 257.2 301.94 257.2 301.38 260.47" style="fill: rgb(166, 166, 166); transform-origin: 298.435px 258.835px;" id="elhuoclojl1af" class="animable"></polygon><polygon points="300.41 266.12 293.86 266.12 294.48 262.86 300.97 262.86 300.41 266.12" style="fill: rgb(59, 127, 188); transform-origin: 297.415px 264.49px;" id="elxl7rl8iqzul" class="animable"></polygon><polygon points="299.44 271.78 292.79 271.78 293.41 268.51 300 268.51 299.44 271.78" style="fill: rgb(219, 219, 219); transform-origin: 296.395px 270.145px;" id="elgurlwqvm4v9" class="animable"></polygon><polygon points="298.48 277.43 291.72 277.43 292.34 274.17 299.04 274.17 298.48 277.43" style="fill: rgb(166, 166, 166); transform-origin: 295.38px 275.8px;" id="elg4y76b53vca" class="animable"></polygon><polygon points="297.51 283.09 290.65 283.09 291.27 279.82 298.07 279.82 297.51 283.09" style="fill: rgb(219, 219, 219); transform-origin: 294.36px 281.455px;" id="elj3qjl57dsjh" class="animable"></polygon><polygon points="312.07 254.81 305.72 254.81 306.24 251.55 312.54 251.55 312.07 254.81" style="fill: rgb(219, 219, 219); transform-origin: 309.13px 253.18px;" id="elhs243mud36d" class="animable"></polygon><polygon points="311.26 260.47 304.8 260.47 305.33 257.2 311.73 257.2 311.26 260.47" style="fill: rgb(59, 127, 188); transform-origin: 308.265px 258.835px;" id="eludnc1jmfnl" class="animable"></polygon><polygon points="310.44 266.12 303.89 266.12 304.42 262.86 310.91 262.86 310.44 266.12" style="fill: rgb(166, 166, 166); transform-origin: 307.4px 264.49px;" id="elg5z7nrfxabv" class="animable"></polygon><polygon points="309.63 271.78 302.98 271.78 303.5 268.51 310.1 268.51 309.63 271.78" style="fill: rgb(219, 219, 219); transform-origin: 306.54px 270.145px;" id="el862fykvkce6" class="animable"></polygon><polygon points="308.82 277.43 302.06 277.43 302.59 274.17 309.29 274.17 308.82 277.43" style="fill: rgb(166, 166, 166); transform-origin: 305.675px 275.8px;" id="elphi7jj9s6o" class="animable"></polygon><polygon points="308 283.09 301.15 283.09 301.68 279.82 308.47 279.82 308 283.09" style="fill: rgb(59, 127, 188); transform-origin: 304.81px 281.455px;" id="elbdc341yhyot" class="animable"></polygon><polygon points="408.96 256.44 404.01 256.44 403.08 251.55 407.96 251.55 408.96 256.44" style="fill: rgb(166, 166, 166); transform-origin: 406.02px 253.995px;" id="eluwpcx4lacvd" class="animable"></polygon><polygon points="410.33 263.1 405.28 263.1 404.35 258.21 409.33 258.21 410.33 263.1" style="fill: rgb(59, 127, 188); transform-origin: 407.34px 260.655px;" id="el4hkqp33yf1h" class="animable"></polygon><polygon points="411.69 269.76 406.55 269.76 405.62 264.88 410.69 264.88 411.69 269.76" style="fill: rgb(219, 219, 219); transform-origin: 408.655px 267.32px;" id="elwaopyi1hpom" class="animable"></polygon><polygon points="413.05 276.42 407.82 276.42 406.89 271.54 412.05 271.54 413.05 276.42" style="fill: rgb(38, 50, 56); transform-origin: 409.97px 273.98px;" id="ellhfhf6k2zri" class="animable"></polygon><polygon points="414.41 283.09 409.09 283.09 408.16 278.2 413.41 278.2 414.41 283.09" style="fill: rgb(166, 166, 166); transform-origin: 411.285px 280.645px;" id="elnghweatdlos" class="animable"></polygon><polygon points="415.54 256.44 410.58 256.44 409.56 251.55 414.45 251.55 415.54 256.44" style="fill: rgb(219, 219, 219); transform-origin: 412.55px 253.995px;" id="elpauix8hq1d" class="animable"></polygon><polygon points="417.02 263.1 411.98 263.1 410.96 258.21 415.94 258.21 417.02 263.1" style="fill: rgb(38, 50, 56); transform-origin: 413.99px 260.655px;" id="elfe2z0ft86z" class="animable"></polygon><polygon points="418.51 269.76 413.37 269.76 412.35 264.88 417.42 264.88 418.51 269.76" style="fill: rgb(166, 166, 166); transform-origin: 415.43px 267.32px;" id="elez92zbix5jo" class="animable"></polygon><polygon points="419.99 276.42 414.76 276.42 413.74 271.54 418.9 271.54 419.99 276.42" style="fill: rgb(59, 127, 188); transform-origin: 416.865px 273.98px;" id="el6w4a4ij69wp" class="animable"></polygon><polygon points="421.48 283.09 416.15 283.09 415.13 278.2 420.39 278.2 421.48 283.09" style="fill: rgb(219, 219, 219); transform-origin: 418.305px 280.645px;" id="el5q4peana1ll" class="animable"></polygon><polygon points="422.11 256.44 417.16 256.44 416.05 251.55 420.94 251.55 422.11 256.44" style="fill: rgb(166, 166, 166); transform-origin: 419.08px 253.995px;" id="elrw0h63sttq8" class="animable"></polygon><polygon points="423.72 263.1 418.68 263.1 417.56 258.21 422.54 258.21 423.72 263.1" style="fill: rgb(219, 219, 219); transform-origin: 420.64px 260.655px;" id="el5qd7enjl27h" class="animable"></polygon><polygon points="425.33 269.76 420.19 269.76 419.08 264.88 424.15 264.88 425.33 269.76" style="fill: rgb(59, 127, 188); transform-origin: 422.205px 267.32px;" id="eltoln93qwy9q" class="animable"></polygon><polygon points="426.94 276.42 421.7 276.42 420.59 271.54 425.76 271.54 426.94 276.42" style="fill: rgb(166, 166, 166); transform-origin: 423.765px 273.98px;" id="eleme8ywr3r8f" class="animable"></polygon><polygon points="428.54 283.09 423.22 283.09 422.11 278.2 427.36 278.2 428.54 283.09" style="fill: rgb(59, 127, 188); transform-origin: 425.325px 280.645px;" id="el5uophm0gmk" class="animable"></polygon><polygon points="428.69 256.44 423.74 256.44 422.54 251.55 427.42 251.55 428.69 256.44" style="fill: rgb(59, 127, 188); transform-origin: 425.615px 253.995px;" id="elb00fv1yn1t6" class="animable"></polygon><polygon points="430.42 263.1 425.37 263.1 424.17 258.21 429.15 258.21 430.42 263.1" style="fill: rgb(166, 166, 166); transform-origin: 427.295px 260.655px;" id="elto4ouw1gkhg" class="animable"></polygon><polygon points="432.15 269.76 427.01 269.76 425.81 264.88 430.88 264.88 432.15 269.76" style="fill: rgb(219, 219, 219); transform-origin: 428.98px 267.32px;" id="elh6ve7birpm7" class="animable"></polygon><polygon points="433.88 276.42 428.65 276.42 427.45 271.54 432.61 271.54 433.88 276.42" style="fill: rgb(38, 50, 56); transform-origin: 430.665px 273.98px;" id="elkygzvqkfdvj" class="animable"></polygon><polygon points="435.61 283.09 430.29 283.09 429.08 278.2 434.34 278.2 435.61 283.09" style="fill: rgb(219, 219, 219); transform-origin: 432.345px 280.645px;" id="elysn7ug13m7c" class="animable"></polygon><polygon points="401.92 283.09 362.34 283.09 361.57 251.55 396.5 251.55 401.92 283.09" style="fill: rgb(38, 50, 56); transform-origin: 381.745px 267.32px;" id="el5v2seaqkrg" class="animable"></polygon><polygon points="366.74 255.13 364.17 255.13 364.15 254.47 366.71 254.47 366.74 255.13" style="fill: rgb(59, 127, 188); transform-origin: 365.445px 254.8px;" id="elf1iivytlbj8" class="animable"></polygon><rect x="280.67" y="294.87" width="164.93" height="143.15" style="fill: rgb(69, 90, 100); transform-origin: 363.135px 366.445px;" id="el246rmiyj1sc" class="animable"></rect><rect x="333.35" y="310.69" width="59.56" height="59.56" style="fill: rgb(55, 71, 79); transform-origin: 363.13px 340.47px;" id="elo90whdxno4g" class="animable"></rect><path d="M363.69,319a22.51,22.51,0,1,0,22.5,22.5A22.5,22.5,0,0,0,363.69,319Zm0,38.3a15.8,15.8,0,1,1,15.79-15.8A15.79,15.79,0,0,1,363.69,357.3Z" style="fill: rgb(38, 50, 56); transform-origin: 363.68px 341.51px;" id="ellfiu7bzl1n" class="animable"></path><rect x="361.75" y="324.31" width="3.89" height="17.19" style="fill: rgb(38, 50, 56); transform-origin: 363.695px 332.905px;" id="elvaylaky6k6l" class="animable"></rect><g id="elre8c3tc3tf"><rect x="355.67" y="326.83" width="3.89" height="17.19" style="fill: rgb(38, 50, 56); transform-origin: 357.615px 335.425px; transform: rotate(-45deg);" class="animable"></rect></g><g id="elksmpt2iav3"><rect x="353.15" y="332.91" width="3.89" height="17.19" style="fill: rgb(38, 50, 56); transform-origin: 355.095px 341.505px; transform: rotate(-90deg);" class="animable"></rect></g><g id="elmsvx3pr3e2s"><rect x="355.67" y="338.99" width="3.89" height="17.19" style="fill: rgb(38, 50, 56); transform-origin: 357.615px 347.585px; transform: rotate(-135deg);" class="animable"></rect></g><g id="el10yth89s8pyn"><rect x="361.75" y="341.51" width="3.89" height="17.19" style="fill: rgb(38, 50, 56); transform-origin: 363.695px 350.105px; transform: rotate(180deg);" class="animable"></rect></g><g id="elxu1xqbchppl"><rect x="367.83" y="338.99" width="3.89" height="17.19" style="fill: rgb(38, 50, 56); transform-origin: 369.775px 347.585px; transform: rotate(135deg);" class="animable"></rect></g><g id="elhuowciob3iu"><rect x="370.35" y="332.91" width="3.89" height="17.19" style="fill: rgb(38, 50, 56); transform-origin: 372.295px 341.505px; transform: rotate(90deg);" class="animable"></rect></g><g id="el9nua09w2mps"><rect x="367.83" y="326.83" width="3.89" height="17.19" style="fill: rgb(38, 50, 56); transform-origin: 369.775px 335.425px; transform: rotate(45deg);" class="animable"></rect></g><path d="M363.13,318a22.5,22.5,0,1,0,22.51,22.5A22.5,22.5,0,0,0,363.13,318Zm0,38.29a15.79,15.79,0,1,1,15.79-15.79A15.78,15.78,0,0,1,363.13,356.26Z" style="fill: rgb(69, 90, 100); transform-origin: 363.14px 340.5px;" id="elmrznxb8rx9f" class="animable"></path><rect x="361.19" y="323.28" width="3.89" height="17.19" style="fill: rgb(69, 90, 100); transform-origin: 363.135px 331.875px;" id="elyz49wvbx2rd" class="animable"></rect><g id="elk9cjgslvfsd"><rect x="355.11" y="325.79" width="3.89" height="17.19" style="fill: rgb(69, 90, 100); transform-origin: 357.055px 334.385px; transform: rotate(-45deg);" class="animable"></rect></g><g id="eljh3osr03u39"><rect x="352.59" y="331.88" width="3.89" height="17.19" style="fill: rgb(69, 90, 100); transform-origin: 354.535px 340.475px; transform: rotate(-90deg);" class="animable"></rect></g><g id="elplpfti4bour"><rect x="355.11" y="337.96" width="3.89" height="17.19" style="fill: rgb(69, 90, 100); transform-origin: 357.055px 346.555px; transform: rotate(-135deg);" class="animable"></rect></g><g id="elwwpmw7prmin"><rect x="361.19" y="340.47" width="3.89" height="17.19" style="fill: rgb(69, 90, 100); transform-origin: 363.135px 349.065px; transform: rotate(180deg);" class="animable"></rect></g><g id="el997thv7vwdj"><rect x="367.27" y="337.96" width="3.89" height="17.19" style="fill: rgb(69, 90, 100); transform-origin: 369.215px 346.555px; transform: rotate(135deg);" class="animable"></rect></g><g id="elg7l0t6bnhcf"><rect x="369.79" y="331.88" width="3.89" height="17.19" style="fill: rgb(69, 90, 100); transform-origin: 371.735px 340.475px; transform: rotate(90deg);" class="animable"></rect></g><g id="elc1t7tmna17"><rect x="367.27" y="325.79" width="3.89" height="17.19" style="fill: rgb(69, 90, 100); transform-origin: 369.215px 334.385px; transform: rotate(45deg);" class="animable"></rect></g><circle cx="363.13" cy="340.47" r="4.16" style="fill: rgb(69, 90, 100); transform-origin: 363.13px 340.47px;" id="elnf5clwg0yqn" class="animable"></circle><path d="M367.29,340.47a4.28,4.28,0,0,1-7.25,3.09,4.28,4.28,0,0,1,0-6.18,4.28,4.28,0,0,1,7.25,3.09Zm0,0a4.16,4.16,0,0,0-1.24-2.92,4.06,4.06,0,1,0,1.24,2.92Z" style="fill: rgb(38, 50, 56); transform-origin: 363.006px 340.47px;" id="el7tsa1pjt6" class="animable"></path><path d="M329,315.8a.84.84,0,1,0,1-.85A.85.85,0,0,0,329,315.8Zm0,0a1.09,1.09,0,1,1,1,1.09A1.1,1.1,0,0,1,329,315.8Z" style="fill: rgb(55, 71, 79); transform-origin: 330.09px 315.804px;" id="el6i5ofa7afj8" class="animable"></path><path d="M329,325.65a.84.84,0,1,0,1-.85A.85.85,0,0,0,329,325.65Zm0,0a1.09,1.09,0,1,1,1,1.09A1.1,1.1,0,0,1,329,325.65Z" style="fill: rgb(55, 71, 79); transform-origin: 330.09px 325.654px;" id="elhgaagnxrfyg" class="animable"></path><path d="M329,335.5a.85.85,0,0,0,1,.84.85.85,0,1,0-1-.84Zm0,0a1.09,1.09,0,1,1,1,1.09A1.1,1.1,0,0,1,329,335.5Z" style="fill: rgb(55, 71, 79); transform-origin: 330.09px 335.504px;" id="elylvso5wsld" class="animable"></path><path d="M329,345.35a.85.85,0,0,0,1,.84.85.85,0,0,0,0-1.68A.85.85,0,0,0,329,345.35Zm0,0a1.09,1.09,0,0,1,1-1.09,1.1,1.1,0,1,1-1,1.09Z" style="fill: rgb(55, 71, 79); transform-origin: 330.1px 345.355px;" id="elkzya7z00mnl" class="animable"></path><path d="M329,355.2a.84.84,0,1,0,1.68,0,.84.84,0,1,0-1.68,0Zm0,0a1.09,1.09,0,0,1,1-1.09,1.1,1.1,0,1,1-1,1.09Z" style="fill: rgb(55, 71, 79); transform-origin: 330.1px 355.205px;" id="eln2qo9u9zovo" class="animable"></path><path d="M329,365.05a.84.84,0,1,0,1-.84A.85.85,0,0,0,329,365.05Zm0,0a1.09,1.09,0,0,1,1-1.09,1.1,1.1,0,1,1-1,1.09Z" style="fill: rgb(55, 71, 79); transform-origin: 330.1px 365.055px;" id="elwtdltlyhz5" class="animable"></path><path d="M395.3,315.8a.85.85,0,0,0,1,.84.86.86,0,0,0,0-1.69A.85.85,0,0,0,395.3,315.8Zm0,0a1.1,1.1,0,1,1,1,1.09A1.1,1.1,0,0,1,395.3,315.8Z" style="fill: rgb(55, 71, 79); transform-origin: 396.4px 315.795px;" id="ell8qs7v930q" class="animable"></path><path d="M395.3,325.65a.85.85,0,0,0,1,.84.86.86,0,0,0,0-1.69A.85.85,0,0,0,395.3,325.65Zm0,0a1.1,1.1,0,1,1,1,1.09A1.1,1.1,0,0,1,395.3,325.65Z" style="fill: rgb(55, 71, 79); transform-origin: 396.4px 325.645px;" id="elnv2twp5ms4f" class="animable"></path><path d="M395.3,335.5a.85.85,0,1,0,1-.84A.84.84,0,0,0,395.3,335.5Zm0,0a1.1,1.1,0,1,1,2.19,0,1.1,1.1,0,1,1-2.19,0Z" style="fill: rgb(55, 71, 79); transform-origin: 396.395px 335.5px;" id="el9p9umzrkxnq" class="animable"></path><path d="M395.3,345.35a.85.85,0,1,0,1-.84A.85.85,0,0,0,395.3,345.35Zm0,0a1.1,1.1,0,1,1,1,1.09A1.1,1.1,0,0,1,395.3,345.35Z" style="fill: rgb(55, 71, 79); transform-origin: 396.4px 345.345px;" id="elqrxnvjmm2ol" class="animable"></path><path d="M395.3,355.2a.85.85,0,0,0,1,.85.87.87,0,0,0,.72-.85.85.85,0,1,0-1.69,0Zm0,0a1.1,1.1,0,1,1,1,1.09A1.1,1.1,0,0,1,395.3,355.2Z" style="fill: rgb(55, 71, 79); transform-origin: 396.4px 355.195px;" id="el1qhlc17c2zi" class="animable"></path><path d="M395.3,365.05a.85.85,0,0,0,1,.85.86.86,0,0,0,0-1.69A.85.85,0,0,0,395.3,365.05Zm0,0a1.1,1.1,0,1,1,2.19,0,1.1,1.1,0,1,1-2.19,0Z" style="fill: rgb(55, 71, 79); transform-origin: 396.395px 365.05px;" id="el1xbc2hmy5hw" class="animable"></path><path d="M387.76,306.32a.85.85,0,1,0,.84,1A.85.85,0,0,0,387.76,306.32Zm0,0a1.1,1.1,0,1,1-1.09,1A1.1,1.1,0,0,1,387.76,306.32Z" style="fill: rgb(55, 71, 79); transform-origin: 387.765px 307.42px;" id="el6qjskt16npq" class="animable"></path><path d="M377.91,306.32a.85.85,0,0,0-.85,1,.87.87,0,0,0,.85.72.85.85,0,1,0,0-1.69Zm0,0a1.1,1.1,0,1,1-1.09,1A1.1,1.1,0,0,1,377.91,306.32Z" style="fill: rgb(55, 71, 79); transform-origin: 377.915px 307.42px;" id="ely5hq5abmsvh" class="animable"></path><path d="M368.06,306.32a.85.85,0,0,0-.85,1,.86.86,0,0,0,1.69,0A.85.85,0,0,0,368.06,306.32Zm0,0a1.1,1.1,0,1,1,0,2.19,1.1,1.1,0,1,1,0-2.19Z" style="fill: rgb(55, 71, 79); transform-origin: 368.06px 307.415px;" id="elan8aanmvio" class="animable"></path><path d="M358.21,306.32a.85.85,0,0,0-.85,1,.86.86,0,0,0,1.69,0A.85.85,0,0,0,358.21,306.32Zm0,0a1.1,1.1,0,0,1,1.09,1,1.1,1.1,0,1,1-1.09-1Z" style="fill: rgb(55, 71, 79); transform-origin: 358.205px 307.42px;" id="el70ocg85zxqv" class="animable"></path><path d="M348.35,306.32a.85.85,0,0,0-.84,1,.86.86,0,0,0,1.69,0A.85.85,0,0,0,348.35,306.32Zm0,0a1.1,1.1,0,1,1-1.09,1A1.1,1.1,0,0,1,348.35,306.32Z" style="fill: rgb(55, 71, 79); transform-origin: 348.355px 307.42px;" id="el193570u32ms" class="animable"></path><path d="M338.5,306.32a.85.85,0,0,0-.84,1,.86.86,0,0,0,1.69,0A.85.85,0,0,0,338.5,306.32Zm0,0a1.1,1.1,0,1,1-1.09,1A1.1,1.1,0,0,1,338.5,306.32Z" style="fill: rgb(55, 71, 79); transform-origin: 338.505px 307.42px;" id="elarcgoq2y5ep" class="animable"></path><path d="M387.76,372.59a.86.86,0,0,0-.84,1,.85.85,0,0,0,1.68,0A.86.86,0,0,0,387.76,372.59Zm0,0a1.1,1.1,0,1,1-1.09,1A1.1,1.1,0,0,1,387.76,372.59Z" style="fill: rgb(55, 71, 79); transform-origin: 387.765px 373.69px;" id="el1w0soqaevp1" class="animable"></path><path d="M377.91,372.59a.86.86,0,0,0-.85,1,.85.85,0,0,0,.85.72.84.84,0,0,0,.84-.72A.86.86,0,0,0,377.91,372.59Zm0,0a1.1,1.1,0,1,1-1.09,1A1.1,1.1,0,0,1,377.91,372.59Z" style="fill: rgb(55, 71, 79); transform-origin: 377.915px 373.69px;" id="elury9n97g2r" class="animable"></path><path d="M368.06,372.59a.86.86,0,0,0-.85,1,.86.86,0,0,0,1.69,0A.86.86,0,0,0,368.06,372.59Zm0,0a1.1,1.1,0,1,1,0,2.19,1.1,1.1,0,1,1,0-2.19Z" style="fill: rgb(55, 71, 79); transform-origin: 368.06px 373.685px;" id="elo3te0c5inzo" class="animable"></path><path d="M358.21,372.59a.86.86,0,0,0-.85,1,.86.86,0,0,0,1.69,0A.86.86,0,0,0,358.21,372.59Zm0,0a1.1,1.1,0,0,1,1.09,1,1.1,1.1,0,1,1-1.09-1Z" style="fill: rgb(55, 71, 79); transform-origin: 358.205px 373.69px;" id="eloy5xf8u0lva" class="animable"></path><path d="M348.35,372.59a.86.86,0,0,0-.84,1,.86.86,0,0,0,1.69,0A.86.86,0,0,0,348.35,372.59Zm0,0a1.1,1.1,0,1,1-1.09,1A1.1,1.1,0,0,1,348.35,372.59Z" style="fill: rgb(55, 71, 79); transform-origin: 348.355px 373.69px;" id="elha21cq478nj" class="animable"></path><path d="M338.5,372.59a.86.86,0,0,0-.84,1,.86.86,0,0,0,1.69,0A.86.86,0,0,0,338.5,372.59Zm0,0a1.1,1.1,0,1,1-1.09,1A1.1,1.1,0,0,1,338.5,372.59Z" style="fill: rgb(55, 71, 79); transform-origin: 338.505px 373.69px;" id="ele4lv6lmwwc" class="animable"></path><path d="M333.58,411.59a.85.85,0,1,0,.84,1A.85.85,0,0,0,333.58,411.59Zm0,0a1.1,1.1,0,1,1,0,2.19,1.1,1.1,0,1,1,0-2.19Z" style="fill: rgb(55, 71, 79); transform-origin: 333.58px 412.685px;" id="el2pfgfbz7oiq" class="animable"></path><path d="M323.73,411.59a.85.85,0,1,0,.84,1A.85.85,0,0,0,323.73,411.59Zm0,0a1.1,1.1,0,0,1,1.09,1,1.1,1.1,0,1,1-1.09-1Z" style="fill: rgb(55, 71, 79); transform-origin: 323.725px 412.69px;" id="elv6gza5t0kp7" class="animable"></path><path d="M343.43,411.59a.85.85,0,1,0,.84,1A.85.85,0,0,0,343.43,411.59Zm0,0a1.1,1.1,0,1,1-1.09,1A1.1,1.1,0,0,1,343.43,411.59Z" style="fill: rgb(55, 71, 79); transform-origin: 343.435px 412.69px;" id="elpcgwa0ljiar" class="animable"></path><path d="M353.28,411.59a.85.85,0,0,0-.84,1,.83.83,0,0,0,.84.72.84.84,0,0,0,.84-.72A.85.85,0,0,0,353.28,411.59Zm0,0a1.1,1.1,0,1,1-1.09,1A1.1,1.1,0,0,1,353.28,411.59Z" style="fill: rgb(55, 71, 79); transform-origin: 353.285px 412.69px;" id="el0lh3ocnb5wii" class="animable"></path><path d="M363.13,411.59a.85.85,0,0,0-.84,1,.83.83,0,0,0,.84.72.85.85,0,1,0,0-1.69Zm0,0a1.1,1.1,0,1,1,0,2.19,1.1,1.1,0,1,1,0-2.19Z" style="fill: rgb(55, 71, 79); transform-origin: 363.13px 412.685px;" id="elrycbahu8wx" class="animable"></path><path d="M373,411.59a.85.85,0,1,0,.85,1A.85.85,0,0,0,373,411.59Zm0,0a1.1,1.1,0,1,1-1.09,1A1.1,1.1,0,0,1,373,411.59Z" style="fill: rgb(55, 71, 79); transform-origin: 373.005px 412.69px;" id="elrhk5vajy559" class="animable"></path><path d="M382.83,411.59a.85.85,0,1,0,.85,1A.85.85,0,0,0,382.83,411.59Zm0,0a1.1,1.1,0,1,1-1.09,1A1.1,1.1,0,0,1,382.83,411.59Z" style="fill: rgb(55, 71, 79); transform-origin: 382.835px 412.69px;" id="el9lvvubsbyli" class="animable"></path><path d="M392.69,411.59a.85.85,0,1,0,.84,1A.85.85,0,0,0,392.69,411.59Zm0,0a1.1,1.1,0,0,1,1.09,1,1.1,1.1,0,1,1-1.09-1Z" style="fill: rgb(55, 71, 79); transform-origin: 392.685px 412.69px;" id="elz2p4tjaehu" class="animable"></path><path d="M402.54,411.59a.85.85,0,1,0,.84,1A.85.85,0,0,0,402.54,411.59Zm0,0a1.1,1.1,0,1,1,0,2.19,1.1,1.1,0,1,1,0-2.19Z" style="fill: rgb(55, 71, 79); transform-origin: 402.54px 412.685px;" id="el6s59zi2ocw9" class="animable"></path><path d="M412.39,411.59a.85.85,0,1,0,.84,1A.85.85,0,0,0,412.39,411.59Zm0,0a1.1,1.1,0,1,1-1.09,1A1.1,1.1,0,0,1,412.39,411.59Z" style="fill: rgb(55, 71, 79); transform-origin: 412.395px 412.69px;" id="eloxw5kietlin" class="animable"></path><path d="M422.24,411.59a.85.85,0,0,0-.84,1,.83.83,0,0,0,.84.72.84.84,0,0,0,.84-.72A.85.85,0,0,0,422.24,411.59Zm0,0a1.1,1.1,0,1,1-1.09,1A1.1,1.1,0,0,1,422.24,411.59Z" style="fill: rgb(55, 71, 79); transform-origin: 422.245px 412.69px;" id="elpkz8nu1yag" class="animable"></path><path d="M432.09,411.59a.85.85,0,0,0-.84,1,.83.83,0,0,0,.84.72.85.85,0,1,0,0-1.69Zm0,0a1.1,1.1,0,1,1,0,2.19,1.1,1.1,0,1,1,0-2.19Z" style="fill: rgb(55, 71, 79); transform-origin: 432.09px 412.685px;" id="elctgdlgzrh39" class="animable"></path><path d="M441.94,411.59a.85.85,0,1,0,.85,1A.85.85,0,0,0,441.94,411.59Zm0,0a1.1,1.1,0,1,1-1.09,1A1.1,1.1,0,0,1,441.94,411.59Z" style="fill: rgb(55, 71, 79); transform-origin: 441.945px 412.69px;" id="elq7w16d1feiq" class="animable"></path><path d="M313.87,411.59a.85.85,0,1,0,.85,1A.85.85,0,0,0,313.87,411.59Zm0,0a1.1,1.1,0,1,1-1.09,1A1.1,1.1,0,0,1,313.87,411.59Z" style="fill: rgb(55, 71, 79); transform-origin: 313.875px 412.69px;" id="el7pdm0psfh7" class="animable"></path><path d="M304,411.59a.85.85,0,0,0-.84,1,.84.84,0,0,0,.84.72.85.85,0,1,0,0-1.69Zm0,0a1.1,1.1,0,1,1-1.09,1A1.1,1.1,0,0,1,304,411.59Z" style="fill: rgb(55, 71, 79); transform-origin: 304.005px 412.69px;" id="el29lgsl0ulr6" class="animable"></path><path d="M294.17,411.59a.85.85,0,0,0-.84,1,.83.83,0,0,0,.84.72.85.85,0,1,0,0-1.69Zm0,0a1.1,1.1,0,1,1-1.09,1A1.1,1.1,0,0,1,294.17,411.59Z" style="fill: rgb(55, 71, 79); transform-origin: 294.175px 412.69px;" id="el1n7gkw5m9nd" class="animable"></path><path d="M284.32,411.59a.85.85,0,0,0-.84,1,.83.83,0,0,0,.84.72.84.84,0,0,0,.84-.72A.85.85,0,0,0,284.32,411.59Zm0,0a1.1,1.1,0,1,1-1.09,1A1.1,1.1,0,0,1,284.32,411.59Z" style="fill: rgb(55, 71, 79); transform-origin: 284.325px 412.69px;" id="elp7spooh3nr" class="animable"></path><path d="M423.22,353.39a.86.86,0,0,0-1-.85.85.85,0,0,0-.72.85.84.84,0,0,0,.72.84A.86.86,0,0,0,423.22,353.39Zm0,0a1.1,1.1,0,1,1-1-1.09A1.1,1.1,0,0,1,423.22,353.39Z" style="fill: rgb(55, 71, 79); transform-origin: 422.12px 353.395px;" id="elgc8pt637uz6" class="animable"></path><path d="M423.22,343.54a.86.86,0,0,0-1-.85.86.86,0,0,0,0,1.69A.86.86,0,0,0,423.22,343.54Zm0,0a1.1,1.1,0,1,1-2.19,0,1.1,1.1,0,1,1,2.19,0Z" style="fill: rgb(55, 71, 79); transform-origin: 422.125px 343.54px;" id="elr2mlnaxof9" class="animable"></path><path d="M423.22,363.24a.86.86,0,0,0-1-.84.85.85,0,0,0,0,1.68A.86.86,0,0,0,423.22,363.24Zm0,0a1.1,1.1,0,1,1-1-1.09A1.1,1.1,0,0,1,423.22,363.24Z" style="fill: rgb(55, 71, 79); transform-origin: 422.12px 363.245px;" id="el3dt2zghm7ba" class="animable"></path><path d="M423.22,373.09a.86.86,0,0,0-1-.84.85.85,0,0,0,0,1.68A.86.86,0,0,0,423.22,373.09Zm0,0a1.1,1.1,0,1,1-1-1.09A1.1,1.1,0,0,1,423.22,373.09Z" style="fill: rgb(55, 71, 79); transform-origin: 422.12px 373.095px;" id="el0ugtpiq3xi7i" class="animable"></path><path d="M423.22,382.94a.86.86,0,0,0-1-.84.84.84,0,0,0-.72.84.85.85,0,0,0,.72.85A.86.86,0,0,0,423.22,382.94Zm0,0a1.1,1.1,0,1,1-1-1.09A1.1,1.1,0,0,1,423.22,382.94Z" style="fill: rgb(55, 71, 79); transform-origin: 422.12px 382.945px;" id="eld3an5pl5xln" class="animable"></path><path d="M423.22,392.79a.86.86,0,0,0-1-.84.86.86,0,0,0,0,1.69A.86.86,0,0,0,423.22,392.79Zm0,0a1.1,1.1,0,1,1-1-1.09A1.1,1.1,0,0,1,423.22,392.79Z" style="fill: rgb(55, 71, 79); transform-origin: 422.12px 392.795px;" id="el9lbw7bveaat" class="animable"></path><path d="M423.22,402.65a.86.86,0,0,0-1-.85.86.86,0,0,0,0,1.69A.86.86,0,0,0,423.22,402.65Zm0,0a1.1,1.1,0,0,1-1,1.09,1.1,1.1,0,1,1,1-1.09Z" style="fill: rgb(55, 71, 79); transform-origin: 422.12px 402.645px;" id="el3tnu85fz026" class="animable"></path><path d="M423.22,412.5a.86.86,0,0,0-1-.85.86.86,0,0,0,0,1.69A.86.86,0,0,0,423.22,412.5Zm0,0a1.1,1.1,0,1,1-2.19,0,1.1,1.1,0,1,1,2.19,0Z" style="fill: rgb(55, 71, 79); transform-origin: 422.125px 412.5px;" id="ellufkwkbg1op" class="animable"></path><path d="M423.22,422.35a.86.86,0,0,0-1-.85.85.85,0,0,0-.72.85.84.84,0,0,0,.72.84A.86.86,0,0,0,423.22,422.35Zm0,0a1.1,1.1,0,1,1-1-1.09A1.1,1.1,0,0,1,423.22,422.35Z" style="fill: rgb(55, 71, 79); transform-origin: 422.12px 422.355px;" id="elk480883uw7b" class="animable"></path><path d="M423.22,432.2a.86.86,0,0,0-1-.84.85.85,0,0,0,0,1.68A.86.86,0,0,0,423.22,432.2Zm0,0a1.1,1.1,0,1,1-1-1.09A1.1,1.1,0,0,1,423.22,432.2Z" style="fill: rgb(55, 71, 79); transform-origin: 422.12px 432.205px;" id="elc0g2yxydeoi" class="animable"></path><path d="M423.22,333.69a.86.86,0,0,0-1-.85.86.86,0,0,0,0,1.69A.86.86,0,0,0,423.22,333.69Zm0,0a1.1,1.1,0,0,1-1,1.09,1.1,1.1,0,1,1,1-1.09Z" style="fill: rgb(55, 71, 79); transform-origin: 422.12px 333.685px;" id="elvvz7h59mrd" class="animable"></path><path d="M423.22,323.83a.86.86,0,0,0-1-.84.86.86,0,0,0,0,1.69A.86.86,0,0,0,423.22,323.83Zm0,0a1.1,1.1,0,1,1-1-1.09A1.1,1.1,0,0,1,423.22,323.83Z" style="fill: rgb(55, 71, 79); transform-origin: 422.12px 323.835px;" id="eltng372y6ake" class="animable"></path><path d="M423.22,314a.86.86,0,0,0-1-.84.84.84,0,0,0-.72.84.85.85,0,0,0,.72.85A.86.86,0,0,0,423.22,314Zm0,0a1.1,1.1,0,1,1-1-1.09A1.1,1.1,0,0,1,423.22,314Z" style="fill: rgb(55, 71, 79); transform-origin: 422.12px 314.005px;" id="eltyzjrkd2uk" class="animable"></path><path d="M423.22,304.13a.86.86,0,0,0-1-.84.85.85,0,0,0,0,1.68A.86.86,0,0,0,423.22,304.13Zm0,0a1.1,1.1,0,1,1-1-1.09A1.1,1.1,0,0,1,423.22,304.13Z" style="fill: rgb(55, 71, 79); transform-origin: 422.12px 304.135px;" id="el01hzlj7k2uq1" class="animable"></path></g><g id="freepik--Plant--inject-252" class="animable" style="transform-origin: 255.869px 395.85px;"><path d="M283.61,369.4c-11.21,15.18-22.9,32.79-25.74,51.83,0,.28.43.38.49.09a113,113,0,0,1,5-15.24c7.37-2,14.6-3.69,18.47-11,3.94-7.52,3.44-17.32,2.69-25.51C284.43,369.13,283.84,369.11,283.61,369.4Z" style="fill: rgb(59, 127, 188); transform-origin: 271.454px 395.351px;" id="ely88p8d6y4p8" class="animable"></path><path d="M263.43,405.94c5-11.3,11.5-22.64,19.71-31.93.06-.06.14,0,.09.09-5.37,6.61-9.46,13.82-13.45,21.15,3.71-3.76,7.77-7.14,11.29-11.13.07-.08.18,0,.11.11-3.49,4.19-7.3,8.74-11.85,11.84q-1.83,3.38-3.69,6.76c.3-.17.62-.32.93-.48.06,0,.1.06.05.08-.35.18-.69.37-1.05.52-.59,1.06-1.17,2.13-1.78,3.2C263.65,406.39,263.32,406.18,263.43,405.94Z" style="fill: rgb(38, 50, 56); transform-origin: 273.327px 390.121px;" id="elszvubn3l28" class="animable"></path><path d="M267.18,402a66.06,66.06,0,0,0,8.6-5.75c.07-.05.18.05.1.11a45.15,45.15,0,0,1-8.58,5.85A.12.12,0,0,1,267.18,402Z" style="fill: rgb(38, 50, 56); transform-origin: 271.514px 399.231px;" id="el0486tsfivx7d" class="animable"></path><path d="M256.57,418.4c0,.23.42.22.41,0,.06-6.27,0-12.57.1-18.86,1.61-3.24,5.05-5,7.45-7.64a32.84,32.84,0,0,0,4.47-6.22,44.61,44.61,0,0,0,5.19-17.29c.66-6.71-1.88-28.83-4.71-28.06-1.47.4-6.21,11.36-7.47,15a104.27,104.27,0,0,0-4.46,18.37C255.26,388.41,255.45,403.55,256.57,418.4Z" style="fill: rgb(59, 127, 188); transform-origin: 265.03px 379.44px;" id="elywc92k7lvh" class="animable"></path><path d="M256.53,391.36l0,0c.34-7.93,2.13-15.94,3.8-23.63,1.8-8.29,3.91-16.09,8.17-23.48a.12.12,0,0,1,.21.12,87.36,87.36,0,0,0-6.56,18c.28-.45.63-.87.93-1.3.11-.16.39,0,.27.16a10.9,10.9,0,0,1-1.33,1.89l-.05,0c-1.47,5.92-2.53,12-3.43,18l.2-.24c.05-.05.13,0,.09.07s-.23.4-.35.6c-.46,3.07-.88,6.13-1.3,9.17,5.46-4.67,10.12-10.17,12.75-16.95,0,0,.07,0,.06,0-2.58,7-6.65,13.28-12.9,17.55-.11.82-.23,1.64-.34,2.45,0,.17-.3.12-.3,0,0-.72,0-1.45.07-2.17C256.47,391.55,256.43,391.44,256.53,391.36Z" style="fill: rgb(38, 50, 56); transform-origin: 263.221px 369.034px;" id="el8s9suxlcwp6" class="animable"></path><path d="M259.1,379.87a127.08,127.08,0,0,0,11.13-19.17c0-.08.16,0,.13.06-2.57,6.84-6.17,13.77-11.05,19.27C259.21,380.14,259,380,259.1,379.87Z" style="fill: rgb(38, 50, 56); transform-origin: 264.719px 370.368px;" id="eljpc9bkbujjf" class="animable"></path><path d="M264.65,359.16c1.73-3.06,3.55-6,5.18-9.15,0-.09.16,0,.13.07a47.6,47.6,0,0,1-5,9.24A.15.15,0,0,1,264.65,359.16Z" style="fill: rgb(38, 50, 56); transform-origin: 267.297px 354.693px;" id="el362j62fh1c8" class="animable"></path><path d="M264,360.49a0,0,0,1,1,0,.06S263.94,360.49,264,360.49Z" style="fill: rgb(38, 50, 56); transform-origin: 263.987px 360.52px;" id="elbdg76crztuk" class="animable"></path><path d="M252.33,400.27a64,64,0,0,1-1.46,12.35c.06.44.12.89.19,1.35a59.06,59.06,0,0,0,2.21-13.77.42.42,0,0,0,0-.42h0a91.2,91.2,0,0,0-1.39-18.65c-1.94-11.52-6.18-22.58-14.21-31.21a.57.57,0,0,0-.89.18c-3.24,8.24-2.11,18.08.65,26.3a48,48,0,0,0,6.37,12.49C246.58,392.76,250.09,396,252.33,400.27Z" style="fill: rgb(59, 127, 188); transform-origin: 244.066px 381.874px;" id="elqgjdqxcr5fd" class="animable"></path><path d="M238.64,353.76c7.61,12.36,12.91,27,13.56,41.61,0,.26-.43.33-.46.06-.18-1.31-.38-2.61-.59-3.9h0c-3.15-3-6.38-6.2-8.64-10,0-.07.06-.14.11-.08A105.16,105.16,0,0,0,251,390.6c-.54-3.23-1.19-6.4-2-9.53l-.6-.71c-.14-.16.08-.38.22-.23l.19.21a109.05,109.05,0,0,0-4-12.64c-1.93-2.31-4.1-4.31-5.51-7.1,0-.07.05-.12.1-.06a57.19,57.19,0,0,0,3.52,4.68c.51.58,1.08,1.14,1.61,1.71a96.5,96.5,0,0,0-6.24-13A.18.18,0,0,1,238.64,353.76Z" style="fill: rgb(38, 50, 56); transform-origin: 245.235px 374.626px;" id="elciivhghvwo" class="animable"></path><path d="M240.18,369c2.46,3.31,5.26,6.47,7.55,9.89.07.1-.08.2-.16.13A50.5,50.5,0,0,1,240,369.1C239.94,369,240.11,368.91,240.18,369Z" style="fill: rgb(38, 50, 56); transform-origin: 243.868px 374.003px;" id="eled0hu3hgka" class="animable"></path><path d="M248.08,379.67l.1.1c.07.08,0,.19-.11.12l-.11-.11C247.89,379.71,248,379.6,248.08,379.67Z" style="fill: rgb(38, 50, 56); transform-origin: 248.073px 379.78px;" id="elrl2jzuz7sg" class="animable"></path><path d="M226.71,377.52a38,38,0,0,0,8,18.85,20,20,0,0,0,6.52,5.08c2.82,1.4,5.78,3,8.69,4.15A57,57,0,0,1,253,416.54c.1-.32.19-.65.29-1-1.88-16.1-12.29-29.85-25.62-38.68A.64.64,0,0,0,226.71,377.52Z" style="fill: rgb(59, 127, 188); transform-origin: 239.995px 396.654px;" id="el9ano5iw6ega" class="animable"></path><path d="M231.31,382.27c-.09-.08,0-.25.14-.17a54.49,54.49,0,0,1,17,20.92.19.19,0,0,1-.33.19c-.62-1.08-1.25-2.14-1.89-3.17h0c-3-.57-5.92-2.71-8.18-4.75-.06-.05,0-.14.09-.09a19.1,19.1,0,0,0,3.85,2.71c1.24.63,2.57,1,3.87,1.53q-1.69-2.69-3.53-5.17a35.59,35.59,0,0,1-9.14-5.14c-.09-.06,0-.2.08-.15a89.11,89.11,0,0,0,8.5,4.54,77.46,77.46,0,0,0-6-7c-1-.54-2.08-1.09-3.08-1.68-.08,0,0-.18.06-.15a10.82,10.82,0,0,1,2.37,1.16C233.88,384.65,232.64,383.45,231.31,382.27Z" style="fill: rgb(38, 50, 56); transform-origin: 239.874px 392.692px;" id="el617p8qo4r9b" class="animable"></path><path d="M231.6,387.83a3.68,3.68,0,0,1,.51.37s0,.1-.07.08a4,4,0,0,1-.53-.3C231.42,387.92,231.5,387.77,231.6,387.83Z" style="fill: rgb(38, 50, 56); transform-origin: 231.79px 388.049px;" id="elorjqyyvbqqg" class="animable"></path><polygon points="274.11 451.39 237.6 451.39 240.55 418.15 241.19 410.82 270.51 410.82 271.16 418.15 274.11 451.39" style="fill: rgb(69, 90, 100); transform-origin: 255.855px 431.105px;" id="elpa6uvt0lsm" class="animable"></polygon><polygon points="271.16 418.15 240.55 418.15 241.19 410.82 270.51 410.82 271.16 418.15" style="fill: rgb(38, 50, 56); transform-origin: 255.855px 414.485px;" id="elgxxc1jcoimo" class="animable"></polygon><rect x="239.45" y="405.69" width="32.81" height="7.26" style="fill: rgb(69, 90, 100); transform-origin: 255.855px 409.32px;" id="ela3e5ahvfgd4" class="animable"></rect></g><g id="freepik--Character--inject-252" class="animable" style="transform-origin: 143.57px 257.514px;"><path d="M196.57,451.32c-2.55.8-74.81-.75-77.53-2.55-1-.67-1.42-11.22-1.52-24,0-2.75,0-5.59,0-8.48,0-3.42,0-6.88.07-10.24.19-15.1.64-28.38.64-28.38l47,.87L164.71,407l-.2,10.24-.4,8.47s27.39,13,30.16,15.27S199.1,450.54,196.57,451.32Z" style="fill: rgb(247, 169, 160); transform-origin: 157.618px 414.603px;" id="elsdrzjxgcvlp" class="animable"></path><path d="M196.57,451.32c-2.55.8-74.81-.75-77.53-2.55-1-.67-1.42-11.22-1.52-24,0-2.75,0-5.59,0-8.48,0-3.42,0-6.88.07-10.24l47.14.87-.2,10.24-.4,8.47s27.39,13,30.16,15.27S199.1,450.54,196.57,451.32Z" style="fill: rgb(255, 255, 255); transform-origin: 157.62px 428.793px;" id="elkt3b6xaoeq" class="animable"></path><path d="M196.78,451.44c-1.65.51-32.44.05-54.84-.83-5.18-.21-9.92-.44-13.74-.68-5.27-.34-8.8-.69-9.37-1.07-1.26-.84-1.58-16.3-1.57-32.62l47.28.88-.4,8.52s27.55,13,30.34,15.35S199.33,450.63,196.78,451.44Z" style="fill: rgb(59, 127, 188); transform-origin: 157.599px 433.946px;" id="elq00uzmx6wv" class="animable"></path><path d="M195.8,448.51c-12.17-.56-61.32-1.67-73.4-1.3-.1,0-.1.07,0,.08,12,.82,61.21,1.53,73.4,1.42C196.06,448.7,196.06,448.52,195.8,448.51Z" style="fill: rgb(38, 50, 56); transform-origin: 159.16px 447.929px;" id="elkdkyn7tfp0h" class="animable"></path><path d="M165.92,423c-4.78-1-10.66-.39-14.39,2.95-.15.13,0,.33.2.29a67.26,67.26,0,0,1,14.15-2.63A.31.31,0,0,0,165.92,423Z" style="fill: rgb(38, 50, 56); transform-origin: 158.814px 424.404px;" id="elxewxhlr9en" class="animable"></path><path d="M169.33,425.13c-4.77-1-10.65-.39-14.39,2.95-.14.13,0,.33.2.29a67.37,67.37,0,0,1,14.16-2.64A.3.3,0,0,0,169.33,425.13Z" style="fill: rgb(38, 50, 56); transform-origin: 162.249px 426.534px;" id="elvws74terqp" class="animable"></path><path d="M172.75,427.29c-4.78-1-10.66-.39-14.39,2.95-.15.13,0,.33.2.29a67.27,67.27,0,0,1,14.15-2.64A.3.3,0,0,0,172.75,427.29Z" style="fill: rgb(38, 50, 56); transform-origin: 165.665px 428.694px;" id="elnwxqzhx35o9" class="animable"></path><path d="M176.16,429.45c-4.77-1-10.65-.39-14.39,2.95-.14.13,0,.33.2.28a68,68,0,0,1,14.16-2.63A.3.3,0,0,0,176.16,429.45Z" style="fill: rgb(38, 50, 56); transform-origin: 169.079px 430.851px;" id="elq8odnfm0dj" class="animable"></path><path d="M175,412.08c-1.83-2.64-5.36-1.55-7.4.09A25.64,25.64,0,0,0,160,423a.13.13,0,0,0,.11.18c0,.36.33.76.74.61,4-1.38,8.43-2.36,11.87-4.92C174.72,417.36,176.73,414.57,175,412.08Zm-8.55,8.37c-2,.73-3.91,1.36-5.83,2.15,1.49-2.1,2.88-4.26,4.58-6.22a30,30,0,0,1,2.6-2.69c1.46-1.26,7.16-3.91,6.2,1.34C173.49,417.91,168.78,419.59,166.46,420.45Z" style="fill: rgb(38, 50, 56); transform-origin: 167.824px 417.156px;" id="elm5mp89fqkc9" class="animable"></path><path d="M147.84,421.48c3.91,1.77,8.45,1.78,12.65,2.28a.6.6,0,0,0,.59-.76.14.14,0,0,0,.07-.2,25.67,25.67,0,0,0-9.76-8.94c-2.34-1.17-6-1.48-7.24,1.49C143,418.15,145.55,420.45,147.84,421.48ZM145.75,418c-2.06-4.92,4.08-3.56,5.77-2.63a27.09,27.09,0,0,1,3.11,2.07,76.22,76.22,0,0,1,5.81,5.1c-2-.37-4.1-.56-6.15-.86C151.83,421.35,146.88,420.73,145.75,418Z" style="fill: rgb(38, 50, 56); transform-origin: 152.517px 418.39px;" id="elx11w167lm" class="animable"></path><g id="el8hdfmq365gx"><path d="M159.8,451.17c-6.08-.15-12.24-.35-17.86-.57-5.18-.19-9.92-.43-13.74-.67-5.27-.34-8.81-.69-9.37-1.07-1.1-.74-1.49-12.68-1.55-26.6C128,429.43,149.08,443.83,159.8,451.17Z" style="opacity: 0.2; transform-origin: 138.54px 436.715px;" class="animable"></path></g><path d="M168.75,425.09l-53.68.05S118,304.3,117.43,301.48C116.05,294.76,90,176.6,90,176.6H135.5s5.64,30.34,6.15,32.23c7.08,25.84,20.91,70,23.73,86.34C170.27,323.52,168.75,425.09,168.75,425.09Z" style="fill: rgb(38, 50, 56); transform-origin: 129.487px 300.87px;" id="elklgyolp35n" class="animable"></path><path d="M167,416.12c-8.37-.22-38-1.1-49.2-.27a.08.08,0,0,0,0,.16c3.82.62,40.83.45,49.2.34A.12.12,0,1,0,167,416.12Z" style="fill: rgb(55, 71, 79); transform-origin: 142.437px 415.979px;" id="elyl196a64a3" class="animable"></path><path d="M123.74,298.81c-1.61-6.53-24.26-113.63-24.69-115.26a.11.11,0,0,0-.21,0c1.2,6.54,22,108.12,23.78,114.54s-1.14,111.64-1,113.35a.38.38,0,0,0,.76,0C122.66,399.08,125.32,305.27,123.74,298.81Z" style="fill: rgb(55, 71, 79); transform-origin: 111.539px 297.646px;" id="el0mfentkrwrsf" class="animable"></path><polygon points="116.22 295.86 129.24 176.6 90.04 176.6 116.22 295.86" style="fill: rgb(55, 71, 79); transform-origin: 109.64px 236.23px;" id="elx3882n472mp" class="animable"></polygon><path d="M140.89,451.51c-2.55.79-74.8-.76-77.53-2.55-1-.68-1.41-11.22-1.52-24,0-2.75,0-5.58,0-8.48,0-3.42,0-6.88.07-10.24.19-15.09.64-28.38.64-28.38l47.05.87L109,407.14l-.2,10.24-.4,8.48s27.4,13,30.16,15.26S143.43,450.73,140.89,451.51Z" style="fill: rgb(247, 169, 160); transform-origin: 101.936px 414.791px;" id="elevjxc7k2195" class="animable"></path><path d="M140.89,451.51c-2.55.79-74.8-.76-77.53-2.55-1-.68-1.41-11.22-1.52-24,0-2.75,0-5.58,0-8.48,0-3.42,0-6.88.07-10.24l47.14.87-.2,10.24-.4,8.48s27.4,13,30.16,15.26S143.43,450.73,140.89,451.51Z" style="fill: rgb(255, 255, 255); transform-origin: 101.942px 428.981px;" id="elsf6agkjzcd9" class="animable"></path><path d="M141.11,451.62c-1.66.51-32.44.05-54.84-.83-5.19-.2-9.93-.43-13.75-.67-5.27-.34-8.8-.7-9.37-1.07-1.26-.84-1.58-16.31-1.56-32.62l47.27.87-.4,8.52s27.55,13,30.34,15.35S143.65,450.82,141.11,451.62Z" style="fill: rgb(59, 127, 188); transform-origin: 101.926px 434.131px;" id="ely4xctiyi2wt" class="animable"></path><path d="M140.12,448.69c-12.17-.56-61.32-1.67-73.4-1.3-.1,0-.1.07,0,.08,12,.82,61.21,1.53,73.4,1.42C140.38,448.89,140.38,448.7,140.12,448.69Z" style="fill: rgb(38, 50, 56); transform-origin: 103.48px 448.109px;" id="elibl5a7aj2gi" class="animable"></path><path d="M110.24,423.16c-4.78-1-10.65-.39-14.39,2.94-.14.13,0,.34.2.29a67.35,67.35,0,0,1,14.16-2.63A.3.3,0,0,0,110.24,423.16Z" style="fill: rgb(38, 50, 56); transform-origin: 103.159px 424.56px;" id="el1g43o7co9rh" class="animable"></path><path d="M113.65,425.31c-4.77-1-10.65-.38-14.38,2.95-.15.13,0,.34.19.29a67.35,67.35,0,0,1,14.16-2.63A.31.31,0,0,0,113.65,425.31Z" style="fill: rgb(38, 50, 56); transform-origin: 106.55px 426.716px;" id="elnkivckfu51s" class="animable"></path><path d="M117.07,427.47c-4.78-1-10.65-.38-14.39,2.95-.14.13,0,.34.2.29A67.35,67.35,0,0,1,117,428.08.31.31,0,0,0,117.07,427.47Z" style="fill: rgb(38, 50, 56); transform-origin: 109.963px 428.876px;" id="elnyahn3m6ue" class="animable"></path><path d="M120.48,429.63c-4.77-1-10.65-.38-14.38,2.95-.15.13,0,.33.19.29a67.35,67.35,0,0,1,14.16-2.63A.31.31,0,0,0,120.48,429.63Z" style="fill: rgb(38, 50, 56); transform-origin: 113.38px 431.035px;" id="el24v45ni2rpc" class="animable"></path><path d="M119.33,412.26c-1.83-2.63-5.36-1.54-7.4.1a25.61,25.61,0,0,0-7.62,10.82.13.13,0,0,0,.11.17c0,.37.33.76.74.62,4-1.38,8.43-2.37,11.87-4.93C119.05,417.54,121.06,414.75,119.33,412.26Zm-8.55,8.38c-1.94.72-3.91,1.35-5.83,2.15a73.28,73.28,0,0,1,4.59-6.22,25.41,25.41,0,0,1,2.6-2.69c1.45-1.27,7.15-3.91,6.2,1.33C117.81,418.1,113.1,419.77,110.78,420.64Z" style="fill: rgb(38, 50, 56); transform-origin: 112.145px 417.339px;" id="elxfywxm2arif" class="animable"></path><path d="M92.16,421.67c3.91,1.76,8.46,1.78,12.65,2.27a.6.6,0,0,0,.59-.76.13.13,0,0,0,.07-.19A25.59,25.59,0,0,0,95.72,414c-2.34-1.16-6-1.47-7.25,1.49C87.31,418.33,89.87,420.63,92.16,421.67Zm-2.09-3.47c-2.06-4.91,4.08-3.55,5.77-2.63A27.17,27.17,0,0,1,99,417.65a74.24,74.24,0,0,1,5.82,5.1c-2-.37-4.11-.57-6.16-.86C96.16,421.54,91.2,420.91,90.07,418.2Z" style="fill: rgb(38, 50, 56); transform-origin: 96.8349px 418.554px;" id="els6629snaoi" class="animable"></path><path d="M111.59,424.55l-52.09-1S74.94,235,74,225c-1.4-15.05-4.37-21.63,5.83-48.72l51.1.43s.19,29.43-5.21,37.84c0,0-4.81,2.92-7.15,4.21Z" style="fill: rgb(38, 50, 56); transform-origin: 95.2154px 300.415px;" id="eloo0cjclfzve" class="animable"></path><path d="M110.16,415.3c-7.9-.35-5.63-.36-13.53-.63-3.87-.13-29.28-.95-32.91-.44a.08.08,0,0,0,0,.16c3.6.68,29,1.07,32.89,1.12,7.9.12,5.63,0,13.54,0A.12.12,0,0,0,110.16,415.3Z" style="fill: rgb(55, 71, 79); transform-origin: 86.9286px 414.814px;" id="elhs8d2cvy0io" class="animable"></path><path d="M129,212.39a97.66,97.66,0,0,0-14.43,8.19.17.17,0,0,0,.17.29c4.88-2.59,9.86-5.08,14.59-7.92A.33.33,0,0,0,129,212.39Z" style="fill: rgb(55, 71, 79); transform-origin: 121.976px 216.626px;" id="elclr05zhw6ya" class="animable"></path><path d="M131.3,178.66c0-.17-.31-.21-.31,0a166.61,166.61,0,0,1-.84,16.69c-.23,2.57-2.3,16.79-6.76,15.76-.75-.18-1.13-.91-1.25-2a18.15,18.15,0,0,1,.59-4.36c.5-3,.9-6,1.15-9a81.61,81.61,0,0,0-.18-16.83.15.15,0,0,0-.29,0,152.91,152.91,0,0,1-1.36,23.23c-.56,3.69-2.42,9.26,1.45,9.83s6.49-8.75,7-11.3A85,85,0,0,0,131.3,178.66Z" style="fill: rgb(55, 71, 79); transform-origin: 126.391px 195.261px;" id="elpx76t4m8oa" class="animable"></path><path d="M123.5,211.47a25,25,0,0,0-1,2.95,6.93,6.93,0,0,0-.42,2.42c0,.16.23.17.31.07a8.45,8.45,0,0,0,1-2.36c.34-.91.7-1.82,1-2.74A.5.5,0,0,0,123.5,211.47Z" style="fill: rgb(55, 71, 79); transform-origin: 123.235px 214.128px;" id="elafqv68hlmul" class="animable"></path><path d="M80.56,225.25c-.29-3.73-.83-7.45-1.17-11.18a69.32,69.32,0,0,1,1.77-22.32c0-.13-.18-.19-.21-.05-1.36,6.47-2.56,12.93-2.36,19.57s1.25,13.09,1.23,19.69-.67,13.35-1.22,20S77.49,264.34,76.94,271c-2.23,26.9-4.33,53.81-6.47,80.72q-.89,11.26-1.73,22.54c-.59,7.64-1.47,26.5-1.9,34.15,0,.66,1,.63,1,0,1.39-13.49,2.52-38.25,3.63-51.77s2.13-26.77,3.2-40.15,2.12-26.77,3.16-40.16q.78-10,1.54-20.07c.5-6.67,1.12-13.34,1.34-20A96.28,96.28,0,0,0,80.56,225.25Z" style="fill: rgb(55, 71, 79); transform-origin: 74px 300.257px;" id="elu80c03bvl9" class="animable"></path><path d="M105.24,186.43a.13.13,0,0,0-.23,0c-.5.81-.44,2.17-.61,3.11a22.9,22.9,0,0,1-.87,3.35,13.39,13.39,0,0,1-3.63,5.77c-3.76,3.34-8.73,4.51-13.52,5.57-.18,0-.12.28,0,.3a21.72,21.72,0,0,0,8.34-1.13,17.42,17.42,0,0,0,6.49-3.43,11.78,11.78,0,0,0,3.58-6.12,21.37,21.37,0,0,0,.47-3.74c0-.61,0-1.21.06-1.81A4.73,4.73,0,0,0,105.24,186.43Z" style="fill: rgb(55, 71, 79); transform-origin: 95.8221px 195.465px;" id="elmvpmahq4pv" class="animable"></path><path d="M118.12,114.29c10,9.78,37.38,27.48,45.62,27.82,6.3.26,26.17-12.5,33.61-18.76,3.19-2.69-12.49-22-15.14-20.3-8.17,5.32-21.91,13.31-24.61,14.34-1.9.72-12.29-3.65-33-10.83C113,102.59,112.48,108.78,118.12,114.29Z" style="fill: rgb(211, 118, 106); transform-origin: 156.2px 122.529px;" id="elsari3r0ros" class="animable"></path><path d="M196,127.8,178.5,103.56S159.73,115,156.91,116.41c-1.19.6-24.26-7.86-34.56-11.09-6.77-2.12-13.18,1.26-3.43,10.9,5.71,5.64,36.54,28.27,44.65,27.67C170,143.42,196,127.8,196,127.8Z" style="fill: rgb(59, 127, 188); transform-origin: 154.967px 123.731px;" id="el6dtw068zg7l" class="animable"></path><path d="M190.34,129.49c-1.52-1.54-6.69-8.82-8-10.65s-6.1-9.35-7.4-11.23c-.07-.1.06-.23.13-.13,1.32,1.84,6.75,9,8,10.8s6.35,9.15,7.29,11.14A.06.06,0,0,1,190.34,129.49Z" style="fill: rgb(38, 50, 56); transform-origin: 182.642px 118.467px;" id="el8lrajvln9ea" class="animable"></path><g id="el415qe5y6vkn"><path d="M151.79,139.44c-12.24-6.76-28.83-19.23-32.87-23.22-6.63-6.56-5.79-10.22-2.44-11.22Z" style="fill: rgb(2, 1, 0); opacity: 0.1; transform-origin: 132.862px 122.22px;" class="animable"></path></g><path d="M76.78,179.37c.14.17,62.71,2.14,63.31,1.5a42.79,42.79,0,0,0,.25-5.29s-12.16-66.74-15.47-70.4c-2.9-3.21-10.92-5-16-2.19-10.67,5.79-31.51,68.48-31,70.93C77.89,173.92,76.6,179.15,76.78,179.37Z" style="fill: rgb(59, 127, 188); transform-origin: 108.554px 141.296px;" id="elz894taehmn" class="animable"></path><path d="M139,176.33c-1.95-.15-3.92-.09-5.88-.17s-3.73-.22-5.6-.28c-3.83-.11-7.66-.19-11.49-.31-7.66-.23-15.32-.53-23-.8l-6.41-.25c-2.23-.09-4.47,0-6.7-.12a.09.09,0,0,0,0,.17c1.95.15,3.9.43,5.86.55l5.6.33q5.73.33,11.48.55,11.49.48,23,.66c2.15,0,4.29,0,6.43,0s4.47.08,6.7,0C139.13,176.57,139.16,176.34,139,176.33Z" style="fill: rgb(38, 50, 56); transform-origin: 109.484px 175.548px;" id="el7tb4ymfzwe5" class="animable"></path><polygon points="191.17 164.32 212.2 120.46 227.64 111.86 206.61 155.71 191.17 164.32" style="fill: rgb(59, 127, 188); transform-origin: 209.405px 138.09px;" id="elnqwqq3n4hfd" class="animable"></polygon><g id="elcyw17vlij7e"><polygon points="191.17 164.32 212.2 120.46 227.64 111.86 206.61 155.71 191.17 164.32" style="opacity: 0.2; transform-origin: 209.405px 138.09px;" class="animable"></polygon></g><g id="elz4k7ut9o0i"><rect x="133.77" y="129" width="83.94" height="40.8" style="fill: rgb(59, 127, 188); transform-origin: 175.74px 149.4px; transform: rotate(-64.39deg);" class="animable"></rect></g><g id="elwbd4z20bmwg"><rect x="133.77" y="129" width="83.94" height="40.8" style="opacity: 0.2; transform-origin: 175.74px 149.4px; transform: rotate(-64.39deg);" class="animable"></rect></g><g id="elyqpy74bbuzk"><rect x="168.65" y="107.05" width="35.24" height="40.8" style="opacity: 0.2; transform-origin: 186.27px 127.45px; transform: rotate(-64.39deg);" class="animable"></rect></g><path d="M177,106.14q2.22,5.42,4.52,10.77l4.6,10.69,4.69,10.62q2.36,5.29,4.77,10.53Q193.33,143.33,191,138l-4.61-10.69-4.68-10.61Q179.4,111.39,177,106.14Z" style="fill: rgb(59, 127, 188); transform-origin: 186.29px 127.445px;" id="el4v7fjifdrgn" class="animable"></path><path d="M208.7,121.35q-5.59,1.4-11.2,2.88l-11.21,3-11.22,3.1q-5.61,1.58-11.23,3.22,5.59-1.39,11.2-2.87l11.21-3,11.22-3.1Q203.08,123,208.7,121.35Z" style="fill: rgb(59, 127, 188); transform-origin: 186.27px 127.45px;" id="elcmf65eteedf" class="animable"></path><g id="elew38tzci3jp"><rect x="195.04" y="129.36" width="10.7" height="9.56" style="fill: rgb(235, 235, 235); transform-origin: 200.39px 134.14px; transform: rotate(115.61deg);" class="animable"></rect></g><g id="el55n1dd4dqsy"><rect x="154.03" y="163.34" width="0.57" height="8.11" style="fill: rgb(38, 50, 56); transform-origin: 154.315px 167.395px; transform: rotate(115.62deg);" class="animable"></rect></g><g id="elfwf5kk73g14"><rect x="153.43" y="164.58" width="0.57" height="8.11" style="fill: rgb(38, 50, 56); transform-origin: 153.715px 168.635px; transform: rotate(115.61deg);" class="animable"></rect></g><g id="eltr2hx0vd9x"><rect x="152.83" y="165.82" width="0.57" height="8.11" style="fill: rgb(38, 50, 56); transform-origin: 153.115px 169.875px; transform: rotate(115.62deg);" class="animable"></rect></g><g id="eljqkhp1qobfk"><rect x="152.24" y="167.07" width="0.57" height="8.11" style="fill: rgb(38, 50, 56); transform-origin: 152.525px 171.125px; transform: rotate(115.61deg);" class="animable"></rect></g><g id="elwry0wh7i008"><rect x="151.64" y="168.31" width="0.57" height="8.11" style="fill: rgb(38, 50, 56); transform-origin: 151.925px 172.365px; transform: rotate(115.61deg);" class="animable"></rect></g><g id="el7lemb6g6e7a"><rect x="151.04" y="169.56" width="0.57" height="8.11" style="fill: rgb(38, 50, 56); transform-origin: 151.325px 173.615px; transform: rotate(115.62deg);" class="animable"></rect></g><g id="el52q2hhbnwkv"><rect x="150.45" y="170.8" width="0.57" height="8.11" style="fill: rgb(38, 50, 56); transform-origin: 150.735px 174.855px; transform: rotate(115.61deg);" class="animable"></rect></g><g id="elbicffcanbis"><rect x="149.85" y="172.05" width="0.57" height="8.11" style="fill: rgb(38, 50, 56); transform-origin: 150.135px 176.105px; transform: rotate(115.62deg);" class="animable"></rect></g><g id="elagcbrd1up8e"><rect x="149.26" y="173.29" width="0.57" height="8.11" style="fill: rgb(38, 50, 56); transform-origin: 149.545px 177.345px; transform: rotate(115.62deg);" class="animable"></rect></g><path d="M153.78,160.56l-1.51,1.73,2.24-4.69-.39,2.27,2.68,1.29c.88-1.34,2.56-1.23,5,0l-2.24,4.68c-2.46-1.18-3.6-2.42-3.11-3.94Z" style="fill: rgb(38, 50, 56); transform-origin: 157.035px 161.72px;" id="el6ddkj2c532" class="animable"></path><polygon points="158.61 158.23 159.2 157.01 155.62 155.29 157.12 152.16 160.7 153.88 161.29 152.65 163.68 157.23 158.61 158.23" style="fill: rgb(38, 50, 56); transform-origin: 159.65px 155.195px;" id="ellx6t6eiuhy" class="animable"></polygon><g id="ele8oar97n9t"><polygon points="139.2 178.43 143.77 180.62 173.27 140.76 160.26 134.52 139.2 178.43" style="opacity: 0.1; transform-origin: 156.235px 157.57px;" class="animable"></polygon></g><polygon points="178.98 213.44 200.01 169.59 197.05 152.16 176.03 196.01 178.98 213.44" style="fill: rgb(59, 127, 188); transform-origin: 188.02px 182.8px;" id="el54exc25v64r" class="animable"></polygon><g id="elczvnxop75j"><polygon points="178.98 213.44 200.01 169.59 197.05 152.16 176.03 196.01 178.98 213.44" style="opacity: 0.1; transform-origin: 188.02px 182.8px;" class="animable"></polygon></g><path d="M103.2,117.78c-3.59,18-5.48,51.44-2.44,57.26,2.69,5.15,22.9,15,32.81,17.79,3.71,1,17.47-22.88,13.48-23.92-4.78-1.25-25.4-10.53-25.92-11.72s-3.44-25.39-7.23-39.47C110.46,105,104.56,111,103.2,117.78Z" style="fill: rgb(211, 118, 106); transform-origin: 123.505px 151.565px;" id="elto592mahdj" class="animable"></path><path d="M129.81,191.29c8.13,6.87,17.83,13.12,28.93,14a5.49,5.49,0,0,0,3.51-.83c5,.47,6.67-1.74,6.67-1.74,4.76-1,6.19-3.48,6.19-3.48s5.84.48,6.72-3c1-3.9-7.4-3.81-12-6.58-10.64-6.35-24-18.36-26.87-20.5Z" style="fill: rgb(211, 118, 106); transform-origin: 155.861px 187.239px;" id="elypvshew28r" class="animable"></path><path d="M154,190.79a80.78,80.78,0,0,0,9.63,5A79.87,79.87,0,0,0,175,199.07a.1.1,0,0,1,0,.2,42.19,42.19,0,0,1-21.13-8.34C153.74,190.82,153.8,190.7,154,190.79Z" style="fill: rgb(38, 50, 56); transform-origin: 164.451px 195.014px;" id="eldy2vrdcxg0r" class="animable"></path><path d="M149.19,196.65c3.18,1.59,8.79,4.34,19.75,5.9,0,0,0,.07,0,.07a37.82,37.82,0,0,1-19.82-5.82C148.93,196.69,149,196.54,149.19,196.65Z" style="fill: rgb(38, 50, 56); transform-origin: 158.974px 199.616px;" id="el4k42twxt6hr" class="animable"></path><path d="M146.69,199.85c5.51,2.49,9.3,3.37,15.54,4.53,0,0,0,.07,0,.07-7.23-.58-9.78-1.61-15.64-4.42C146.38,199.93,146.47,199.75,146.69,199.85Z" style="fill: rgb(38, 50, 56); transform-origin: 154.351px 202.135px;" id="el2a28m8qbw38" class="animable"></path><path d="M156,183.21c-1.17-1.28,1.27-3.28,4.73-3.42,3.12-.13,14.78,4,16-.24s-15.23-10.42-20.36-10.87-13.6.61-13.6.61C143.79,170.07,150.23,179.49,156,183.21Z" style="fill: rgb(211, 118, 106); transform-origin: 159.782px 175.889px;" id="elx281crd5tuq" class="animable"></path><path d="M129.63,194.77l11.05-31.07L122.91,155c-2-10.94-6.06-32.83-8.6-40.19-3-8.63-9.16-7.13-11.52,1.86-5.41,20.58-6.12,55-3.74,59.8C102.46,183.26,129.63,194.77,129.63,194.77Z" style="fill: rgb(59, 127, 188); transform-origin: 119.218px 151.921px;" id="el87lf13jzlz2" class="animable"></path><path d="M125.26,188.77c.35-2.17,3.24-10.75,4-12.88s4-10.57,4.8-12.76c0-.12.22-.09.18,0-.73,2.18-3.35,10.89-4.07,13s-3.71,10.67-4.78,12.62A.06.06,0,0,1,125.26,188.77Z" style="fill: rgb(38, 50, 56); transform-origin: 129.752px 175.938px;" id="el4vqb2778r46" class="animable"></path><path d="M118.19,189.46q-4.11-2.06-8.09-4.33a72.83,72.83,0,0,1-7.72-5,14.41,14.41,0,0,1-3.33-3.24,13.12,13.12,0,0,1-1.22-4.49,67.39,67.39,0,0,1-.42-9.2c0-6.12.5-12.23,1-18.32s1.31-12.16,2.22-18.2c-.58,6.08-1.12,12.17-1.58,18.26s-.84,12.18-1,18.27a81.5,81.5,0,0,0,.3,9.12,12.92,12.92,0,0,0,1,4.32,14,14,0,0,0,3.17,3.16,79.19,79.19,0,0,0,7.59,5.1Q114.14,187.32,118.19,189.46Z" style="fill: rgb(38, 50, 56); transform-origin: 107.791px 158.07px;" id="elifq4pif021" class="animable"></path><path d="M100,131.9a8.28,8.28,0,0,1-.3-1.71,5,5,0,0,1,.08-1.73c0,.29,0,.57.08.86l.08.85A14.29,14.29,0,0,1,100,131.9Z" style="fill: rgb(38, 50, 56); transform-origin: 99.832px 130.18px;" id="elrax81l21cli" class="animable"></path><path d="M118.19,131.53c1,3.52,1.6,7.12,2.34,10.69s1.35,7.16,2.16,10.7c.1.44.2.88.32,1.3l.09.31c0,.08.1.23.06.18.11.06.3.19.5.29.78.43,1.6.84,2.41,1.26L131,158.7c3.25,1.65,6.51,3.28,9.74,5h0v0l-.31.83.24-.85,0,.05c-3.35-1.45-6.66-3-10-4.5-1.65-.77-3.29-1.57-4.93-2.37-.82-.41-1.63-.81-2.45-1.24a4.66,4.66,0,0,1-.67-.42,1.32,1.32,0,0,1-.23-.44l-.11-.34c-.13-.45-.24-.9-.34-1.35-.76-3.58-1.4-7.16-2-10.76l-.88-5.4C118.81,135.12,118.57,133.31,118.19,131.53Z" style="fill: rgb(38, 50, 56); transform-origin: 129.465px 148.03px;" id="elqum0q1t288a" class="animable"></path><path d="M119.19,132.44a10.16,10.16,0,0,1,.1,1.74,5.59,5.59,0,0,1-.29,1.72c0-.29,0-.58,0-.86l0-.87A14.61,14.61,0,0,1,119.19,132.44Z" style="fill: rgb(38, 50, 56); transform-origin: 119.147px 134.17px;" id="el5baaoeehcit" class="animable"></path><path d="M181.2,100.06c4.15.27,10.41-1.38,13.27-.21a3.54,3.54,0,0,1,2.31,3.54s2.82-1.93,5.24-.44c1.25.77,1.11,3.43,1.11,3.43a4.25,4.25,0,0,1,4.4,0c1.65,1.17,1.27,3.66,1.27,3.66s2.89-.35,4.19,1.37c2.63,3.5-5.79,18.62-12.67,17.86-3.2-.36-.94-3.94-.94-3.94s-4.5,4.36-7.66,2.71.05-6.14.05-6.14-4.39,4.19-7.49,2.15S185,118,185,118s-4.16,2.1-6.18,0c-3.33-3.49,5.28-7,6.35-10.8l-4.46-4.89Z" style="fill: rgb(211, 118, 106); transform-origin: 195.771px 114.362px;" id="el9ffhq241mgs" class="animable"></path><path d="M187.65,99.69c-3.9-.6-5.66-6.84-9.32-8-4.94-1.5-3.38,5.87,2.41,10.54l5.13,2.84Z" style="fill: rgb(211, 118, 106); transform-origin: 181.513px 98.2811px;" id="elfehgbc8bn4l" class="animable"></path><path d="M208.8,110.45a0,0,0,0,1,.09,0,30.12,30.12,0,0,1-9.61,15.07c-.15.12-.42-.08-.28-.24A61.35,61.35,0,0,0,208.8,110.45Z" style="fill: rgb(38, 50, 56); transform-origin: 203.925px 118.003px;" id="ely3c0ln77keh" class="animable"></path><path d="M203.21,106.33c0-.06.13,0,.11,0a28.11,28.11,0,0,1-11.51,15.78c-.2.13-.5,0-.28-.12C195.21,119.34,200.91,111.43,203.21,106.33Z" style="fill: rgb(38, 50, 56); transform-origin: 197.387px 114.234px;" id="eltofhtcff2m" class="animable"></path><path d="M184.52,118.12c5.44-3.68,9.14-8.74,12.2-14.48,0-.08.14,0,.13.06-.73,3.21-3.07,6.67-5.11,9.21a17.2,17.2,0,0,1-7.09,5.4C184.54,118.36,184.4,118.2,184.52,118.12Z" style="fill: rgb(38, 50, 56); transform-origin: 190.662px 110.963px;" id="el0gryqztofu1" class="animable"></path><path d="M121.53,115.09c-3.81,0-9.42-7.58-10.83-12.62-.1-.34,1.12-3.47,2.42-7.33.78-2.35,1.59-5,2.16-7.44L129.82,95a40.5,40.5,0,0,0-3.67,9.09,6.39,6.39,0,0,0-.12,1c0,.05,0,.11,0,.17C125.88,107.29,125.21,115.07,121.53,115.09Z" style="fill: rgb(211, 118, 106); transform-origin: 120.257px 101.395px;" id="elnzen5u49xzn" class="animable"></path><path d="M126,105.13a1.16,1.16,0,0,1,0,.17,10.17,10.17,0,0,1-1.6-.28c-8.87-2.26-8.45-13.66-8.15-16.82L119.9,90l9.92,5a39.67,39.67,0,0,0-3.66,9.09A5.52,5.52,0,0,0,126,105.13Z" style="fill: rgb(38, 50, 56); transform-origin: 122.975px 96.75px;" id="eleu13cvrjdut" class="animable"></path><path d="M117.53,71.94c-2.68,5.21-2.66,21.68.62,25.94,4.75,6.18,14,8.37,19.6,2.32,5.44-5.86,5-27.32,1.24-31.34C133.39,62.93,121.5,64.24,117.53,71.94Z" style="fill: rgb(211, 118, 106); transform-origin: 128.713px 84.4678px;" id="el48vtg4gtvk8" class="animable"></path><path d="M131.35,85.13s-.09.05-.09.1c0,1.11-.12,2.38-1.12,2.75a0,0,0,0,0,0,.06C131.37,87.87,131.56,86.18,131.35,85.13Z" style="fill: rgb(38, 50, 56); transform-origin: 130.782px 86.585px;" id="elqcyvozvgsvs" class="animable"></path><path d="M130.36,84c-1.78-.14-1.93,3.43-.28,3.56S131.86,84.09,130.36,84Z" style="fill: rgb(38, 50, 56); transform-origin: 130.167px 85.7797px;" id="el3j0w80zw6do" class="animable"></path><path d="M137.64,85.19s.09.06.09.1c-.09,1.11,0,2.39,1,2.8,0,0,0,.07,0,.06C137.49,87.93,137.39,86.23,137.64,85.19Z" style="fill: rgb(38, 50, 56); transform-origin: 138.13px 86.6705px;" id="el4kqr416ej" class="animable"></path><path d="M138.68,84.08c1.79-.06,1.78,3.52.12,3.57S137.18,84.13,138.68,84.08Z" style="fill: rgb(38, 50, 56); transform-origin: 138.794px 85.8649px;" id="elvmr8blwrd3" class="animable"></path><path d="M129,81.61a14,14,0,0,0,1.41-.39,2.38,2.38,0,0,0,1.37-.67.75.75,0,0,0,0-.92,1.87,1.87,0,0,0-1.88-.33,2.79,2.79,0,0,0-1.67,1.07A.81.81,0,0,0,129,81.61Z" style="fill: rgb(38, 50, 56); transform-origin: 130.021px 80.3968px;" id="elf7d8fqz1dvd" class="animable"></path><path d="M140.19,81.13a13.51,13.51,0,0,1-1.41-.43,2.37,2.37,0,0,1-1.35-.71.75.75,0,0,1,.08-.92,1.87,1.87,0,0,1,1.88-.28A2.77,2.77,0,0,1,141,79.92.81.81,0,0,1,140.19,81.13Z" style="fill: rgb(38, 50, 56); transform-origin: 139.209px 79.8952px;" id="elu6yyiz3toi" class="animable"></path><path d="M129.48,94.93c.25.27.5.64.9.69a2.73,2.73,0,0,0,1.2-.23,0,0,0,0,1,0,.06,1.49,1.49,0,0,1-1.43.55,1.18,1.18,0,0,1-.83-1C129.35,94.91,129.44,94.89,129.48,94.93Z" style="fill: rgb(38, 50, 56); transform-origin: 130.45px 95.4663px;" id="el1gujl6d4skr" class="animable"></path><path d="M130.78,91.66a3.77,3.77,0,0,0,2.45,1.79,4.72,4.72,0,0,0,1.35.12,1.23,1.23,0,0,0,.27,0,1.05,1.05,0,0,0,.24,0,.26.26,0,0,0,.23-.23h0v-.12h0v-.1c.06-.85,0-2.15,0-2.15.31.16,1.87,1,1.86.5a56.18,56.18,0,0,0-1-11.48.1.1,0,0,0-.2,0c-.08,3.56.46,7.1.44,10.68a6.77,6.77,0,0,0-1.76-.62c-.12,0,.1,2.52,0,2.9a.16.16,0,0,1,0,0,5.25,5.25,0,0,1-3.85-1.38C130.81,91.5,130.72,91.57,130.78,91.66Z" style="fill: rgb(38, 50, 56); transform-origin: 133.973px 86.7337px;" id="elp0tugaq9df" class="animable"></path><path d="M115.51,87.81s-2.8-13.42,1.79-19.61c4.77-6.43,16-6.48,20.84-1.21,3.36,3.71,3.3,9.42,3.3,9.42s-.8-3.58-1.87-5-1.71-1.14-2.14-.1-.56,2.67-2,2.37-4-3.78-8.19-3.33-5.86,4.58-6.32,8,.61,5.84-1.3,7.92C118.55,87.55,115.51,87.81,115.51,87.81Z" style="fill: rgb(38, 50, 56); transform-origin: 128.052px 75.5024px;" id="elqas650ixp8l" class="animable"></path><path d="M119.39,85.69s-2.53-5.87-5.12-5.07-1.43,8.79,1.09,10.37a2.84,2.84,0,0,0,4-.72Z" style="fill: rgb(211, 118, 106); transform-origin: 116.099px 86.0313px;" id="elcl6u3t0vxh" class="animable"></path><path d="M114.66,82.9a0,0,0,0,0,0,.07c1.75,1.17,2.39,3.16,2.72,5.15a1.57,1.57,0,0,0-2.21-.9.06.06,0,0,0,0,.11,1.76,1.76,0,0,1,1.76,1,9.09,9.09,0,0,1,.59,1.71c0,.19.38.16.35,0v0C118.42,87.5,117.23,83.69,114.66,82.9Z" style="fill: rgb(38, 50, 56); transform-origin: 116.331px 86.5357px;" id="elchtv2o5dvmd" class="animable"></path><path d="M126.35,104.29,122.14,113,111.6,99.52,108,104.43s10.09,18.65,10.21,17.84l4.23-7.48,5.14,5.7.34-13.49Z" style="fill: rgb(235, 235, 235); transform-origin: 117.96px 110.908px;" id="elzakl8725ql" class="animable"></path><path d="M128.11,113.83c0-2.23,0-4.47-.1-6.7,0-.08-.13-.12-.16,0-.58,2.12-.46,10.64-.59,12.68l0,0c-.21-.24-4.78-5-4.83-5-.89,1.18-4,6.62-4.21,7.12-1.6-3-7.75-13.75-9.68-16.58a.08.08,0,0,0-.14.07c1.38,3.11,9.51,17.63,9.65,17.6a85,85,0,0,0,4.42-7.91c.76,1,5.34,6.39,5.38,6.06A68.79,68.79,0,0,0,128.11,113.83Z" style="fill: rgb(38, 50, 56); transform-origin: 118.259px 114.17px;" id="elnfjpn2nuglp" class="animable"></path></g><defs>     <filter id="active" height="200%">         <feMorphology in="SourceAlpha" result="DILATED" operator="dilate" radius="2"></feMorphology>                <feFlood flood-color="#32DFEC" flood-opacity="1" result="PINK"></feFlood>        <feComposite in="PINK" in2="DILATED" operator="in" result="OUTLINE"></feComposite>        <feMerge>            <feMergeNode in="OUTLINE"></feMergeNode>            <feMergeNode in="SourceGraphic"></feMergeNode>        </feMerge>    </filter>    <filter id="hover" height="200%">        <feMorphology in="SourceAlpha" result="DILATED" operator="dilate" radius="2"></feMorphology>                <feFlood flood-color="#ff0000" flood-opacity="0.5" result="PINK"></feFlood>        <feComposite in="PINK" in2="DILATED" operator="in" result="OUTLINE"></feComposite>        <feMerge>            <feMergeNode in="OUTLINE"></feMergeNode>            <feMergeNode in="SourceGraphic"></feMergeNode>        </feMerge>            <feColorMatrix type="matrix" values="0   0   0   0   0                0   1   0   0   0                0   0   0   0   0                0   0   0   1   0 "></feColorMatrix>    </filter></defs></svg>