<svg class="animated" id="freepik_stories-to-do-list" xmlns="http://www.w3.org/2000/svg" xmlns:xlink="http://www.w3.org/1999/xlink" viewBox="0 0 500 500" version="1.1" xmlns:svgjs="http://svgjs.com/svgjs"><style>svg#freepik_stories-to-do-list:not(.animated) .animable {opacity: 0;}svg#freepik_stories-to-do-list.animated #freepik--Character--inject-182 {animation: 3s Infinite  linear floating;animation-delay: 0s;}            @keyframes floating {                0% {                    opacity: 1;                    transform: translateY(0px);                }                50% {                    transform: translateY(-10px);                }                100% {                    opacity: 1;                    transform: translateY(0px);                }            }        .animator-hidden { display: none; }</style><g id="freepik--background-simple--inject-182" class="animable animator-hidden" style="transform-origin: 247.299px 255.609px;"><path d="M165.31,113.34s-60.68,35-88.69,85S55.39,309.84,96.68,353.37s113.68,33,176.66,58.33,129.83,15.2,154.37-48.12-20.52-83.64-32.95-154.39S309.11,38.19,165.31,113.34Z" style="fill: #417EAC; transform-origin: 247.299px 255.609px;" id="ellmrol00h5qe" class="animable"></path><g id="elm897p0aozeo"><path d="M165.31,113.34s-60.68,35-88.69,85S55.39,309.84,96.68,353.37s113.68,33,176.66,58.33,129.83,15.2,154.37-48.12-20.52-83.64-32.95-154.39S309.11,38.19,165.31,113.34Z" style="fill: rgb(255, 255, 255); opacity: 0.7; transform-origin: 247.299px 255.609px;" class="animable" id="el0sdpiyg6h19f"></path></g></g><g id="freepik--Pictures--inject-182" class="animable animator-hidden" style="transform-origin: 152.23px 192.725px;"><rect x="155.26" y="134.91" width="60.5" height="80.67" style="fill: rgb(181, 181, 181); transform-origin: 185.51px 175.245px;" id="elf7w3jwuj3z" class="animable"></rect><rect x="160.8" y="142.3" width="49.41" height="65.88" style="fill: #417EAC; transform-origin: 185.505px 175.24px;" id="elcbqmr89cejv" class="animable"></rect><g id="elyejtdwlccad"><rect x="160.8" y="142.3" width="49.41" height="65.88" style="fill: rgb(255, 255, 255); opacity: 0.5; transform-origin: 185.505px 175.24px;" class="animable" id="elsthrqyoda4"></rect></g><rect x="88.7" y="181.97" width="51.43" height="68.57" style="fill: rgb(181, 181, 181); transform-origin: 114.415px 216.255px;" id="elc9v82wu36re" class="animable"></rect><rect x="93.42" y="188.25" width="42" height="56" style="fill: #417EAC; transform-origin: 114.42px 216.25px;" id="elknojp66afhi" class="animable"></rect><g id="el1155n8rp55e9"><rect x="93.42" y="188.25" width="42" height="56" style="fill: rgb(255, 255, 255); opacity: 0.5; transform-origin: 114.42px 216.25px;" class="animable" id="elcjzczkd68pw"></rect></g></g><g id="freepik--Window--inject-182" class="animable animator-hidden" style="transform-origin: 363.6px 205.038px;"><path d="M300.68,337.65H427.21V134.79H300.68Zm66-48.78h55.53V284H366.7V238.68h55.53v-4.92H366.7V189.43h55.53v-4.92H366.7v-44.8h55.89v193H366.7ZM305.3,139.71h56.78v44.8H305.3Zm0,49.72h56.78v44.33H305.3Zm0,49.25h56.78V284H305.3Zm0,50.19h56.78v43.86H305.3Z" style="fill: rgb(181, 181, 181); transform-origin: 363.945px 236.22px;" id="elcap21xcml8e" class="animable"></path><path d="M426.78,130.14a63.51,63.51,0,0,0-126.49,0l-.3,3.32H427.08Zm-120-2.76A57,57,0,0,1,321.13,97l35.68,30.35ZM359.88,122,325.49,92.75A57.25,57.25,0,0,1,359.88,78.6ZM366,78.53a57.28,57.28,0,0,1,33,12l-33,31Zm2.69,48.85,34.91-32.8a57.1,57.1,0,0,1,16.77,32.8Z" style="fill: rgb(181, 181, 181); transform-origin: 363.535px 102.943px;" id="eluhlr3tpyz5h" class="animable"></path></g><g id="freepik--Character--inject-182" class="animable animator-active" style="transform-origin: 250px 261.456px;"><path d="M253.91,198.31s-19.17,1.13-29.42.94-17.65-2.65-20.3,1.9-3,2.66-7.41,10.82-45.11,45.48-45.95,51.36c-1.33,9.28,8.28,15.91,13.59,17.24s34.15-27.52,34.15-27.52-2.93,47-3.87,66.34-1.52,76.11-1.52,76.11h98.31s-1.9-45.93-1.71-55.23,11-55,11-55-.76,18,1.71,25.24,18.86,23.91,28.35,20.49,4.67-17.83,3.53-27.89-1.14-39.1-1.14-58.27,1.14-23-5.5-25.24-19.55-4.93-29.42-8.73-25.24-8.16-27.9-9.11S253.91,198.31,253.91,198.31Z" style="fill: rgb(38, 50, 56); stroke: rgb(38, 50, 56); stroke-linecap: round; stroke-linejoin: round; transform-origin: 243.655px 296.905px;" id="elrs3uqqpzh6h" class="animable"></path><line x1="75.77" y1="395.5" x2="424.23" y2="395.5" style="fill: none; stroke: rgb(38, 50, 56); stroke-linecap: round; stroke-linejoin: round; transform-origin: 250px 395.5px;" id="elc5gfwgibyqn" class="animable"></line><path d="M259.79,192.42s-6.26-.38-11.57,5.7-18,26.95-19.93,29.6,1.71,1.33,5.31.95,14.43-1.9,16.89-.95,12.72,2.09,16.9,6.65,13.47,14.8,14.8,12.14,4.55-14.8,6.07-23,2.66-16.32-3.6-24.49S259.79,192.42,259.79,192.42Z" style="fill: #417EAC; stroke: rgb(38, 50, 56); stroke-linecap: round; stroke-linejoin: round; transform-origin: 258.604px 219.622px;" id="eloeo9mqndwt" class="animable"></path><path d="M258.66,183.31A55.71,55.71,0,0,1,252,206.09c-6.45,12.14-3.41,35.11-.19,34S274.6,226,277.26,218.61s2.08-18.41,6.83-30.17S291.87,170,291.87,170,263.59,182.93,258.66,183.31Z" style="fill: rgb(217, 217, 217); transform-origin: 270.037px 205.064px;" id="eljqze5oax0y" class="animable"></path><g style="clip-path: url(&quot;#freepik--clip-path--inject-182&quot;); transform-origin: 274.08px 200.07px;" id="ely4craa1x29" class="animable"><g id="el6ji8pjo8ph9"><path d="M258.66,183.31a49.63,49.63,0,0,1-2.37,12.49,27,27,0,0,0,8.63,1.07c10.28,0,11.34-1.77,11.34-1.77s-2.13,15.24-4.61,22.68c-1.43,4.31-3.46,9.09-4.92,12.36,4.9-3.93,9.35-8.26,10.53-11.53,2.65-7.4,2.08-18.41,6.83-30.17S291.87,170,291.87,170,263.59,182.93,258.66,183.31Z" style="opacity: 0.15; transform-origin: 274.08px 200.07px;" class="animable" id="elsr96bxtf2er"></path></g></g><path d="M258.66,183.31A55.71,55.71,0,0,1,252,206.09c-6.45,12.14-3.41,35.11-.19,34S274.6,226,277.26,218.61s2.08-18.41,6.83-30.17S291.87,170,291.87,170,263.59,182.93,258.66,183.31Z" style="fill: none; stroke: rgb(38, 50, 56); stroke-linecap: round; stroke-linejoin: round; transform-origin: 270.037px 205.064px;" id="elee0o5c3456b" class="animable"></path><path d="M271,101.89a48.37,48.37,0,0,0-16.51,18.6c-6.07,12.34-5.69,28.66-5.69,28.66s.57,18.22-.38,25.43,8,12.34,12.14,12.53,17.08-8.35,23.16-10.82,7.78-2.85,13.66-8.73,15.95-23.73,16.52-33.78S312.75,112,304,104.93,283.52,95.63,271,101.89Z" style="fill: rgb(217, 217, 217); transform-origin: 281.174px 142.666px;" id="elzw8xnqgb4r" class="animable"></path><g style="clip-path: url(&quot;#freepik--clip-path-2--inject-182&quot;); transform-origin: 285.155px 152.027px;" id="elhc7jegb7szd" class="animable"><g id="el36utsx7m3qx"><path d="M256.3,185.87a12,12,0,0,0,4.25,1.24c4.18.19,17.08-8.35,23.16-10.82s7.78-2.85,13.66-8.73,15.95-23.73,16.52-33.78A46.37,46.37,0,0,0,312,116.94a27.75,27.75,0,0,0-12,8.69c-7.09,8.86,0,16-6,25.52S278.39,166,271.3,173.48,265.91,185.68,256.3,185.87Z" style="opacity: 0.15; transform-origin: 285.155px 152.027px;" class="animable" id="eldpaf8v1s7fl"></path></g></g><path d="M271,101.89a48.37,48.37,0,0,0-16.51,18.6c-6.07,12.34-5.69,28.66-5.69,28.66s.57,18.22-.38,25.43,8,12.34,12.14,12.53,17.08-8.35,23.16-10.82,7.78-2.85,13.66-8.73,15.95-23.73,16.52-33.78S312.75,112,304,104.93,283.52,95.63,271,101.89Z" style="fill: none; stroke: rgb(38, 50, 56); stroke-linecap: round; stroke-linejoin: round; transform-origin: 281.174px 142.666px;" id="elxb10jyl8p3" class="animable"></path><path d="M263.59,143.93s-2.66,1.33-2.66,2.85,1.9,1.89,1.9,1.89" style="fill: none; stroke: rgb(38, 50, 56); stroke-linecap: round; stroke-linejoin: round; transform-origin: 262.26px 146.3px;" id="elcvhofa79807" class="animable"></path><path d="M264.92,144.5s-2.66,3-1.33,4.93,5.31.57,5.31.57-.19.95,2.09,1.14,3.61-2.66,2.28-4.55l-1.33-1.9" style="fill: none; stroke: rgb(38, 50, 56); stroke-linecap: round; stroke-linejoin: round; transform-origin: 268.508px 147.825px;" id="el2xa0tdvo3q2" class="animable"></path><path d="M266.87,134.17c-.46,1.37-1.36,2.31-2,2.09s-.82-1.51-.37-2.88,1.35-2.31,2-2.09S267.32,132.8,266.87,134.17Z" style="fill: rgb(38, 50, 56); stroke: rgb(38, 50, 56); stroke-linecap: round; stroke-linejoin: round; transform-origin: 265.686px 133.775px;" id="elzvy3tazsujj" class="animable"></path><path d="M267.2,131.78a2.84,2.84,0,0,0-3.8-1.52c-2.66,1.14-4,7.79-1.14,9.11" style="fill: none; stroke: rgb(38, 50, 56); stroke-linecap: round; stroke-linejoin: round; transform-origin: 263.93px 134.689px;" id="elqp485r81lpf" class="animable"></path><path d="M282.81,138.72c-.46,1.38-1.36,2.31-2,2.1s-.82-1.51-.37-2.88,1.36-2.31,2-2.09S283.26,137.35,282.81,138.72Z" style="fill: rgb(38, 50, 56); stroke: rgb(38, 50, 56); stroke-linecap: round; stroke-linejoin: round; transform-origin: 281.625px 138.334px;" id="el31xbjs9n5qu" class="animable"></path><path d="M283.14,136.34a2.83,2.83,0,0,0-3.8-1.52c-2.65,1.14-4,7.78-1.14,9.11" style="fill: none; stroke: rgb(38, 50, 56); stroke-linecap: round; stroke-linejoin: round; transform-origin: 279.871px 139.247px;" id="els76b8aea2om" class="animable"></path><path d="M258.85,161.3c-1.14-.57-6.08-3.61-5.89-5.51s2.09-4.55,4-2.85,6.83,5.32,6.83,5.32,2.85,3.42,8.16,1" style="fill: none; stroke: rgb(38, 50, 56); stroke-linecap: round; stroke-linejoin: round; transform-origin: 262.452px 156.848px;" id="elvmkwhvx5wnn" class="animable"></path><path d="M259.23,125.61s2.46-4.74,5.88-5.12,5.12,3.42,5.12,4" style="fill: none; stroke: rgb(38, 50, 56); stroke-linecap: round; stroke-linejoin: round; stroke-width: 4px; transform-origin: 264.73px 123.037px;" id="el2cdve52z832" class="animable"></path><path d="M278.2,128.08s3.42,4.18,11,4.56" style="fill: none; stroke: rgb(38, 50, 56); stroke-linecap: round; stroke-linejoin: round; stroke-width: 4px; transform-origin: 283.7px 130.36px;" id="elakbra3osquf" class="animable"></path><path d="M313.89,133.78c.56-10.06-1.14-21.83-9.87-28.85s-20.5-9.3-33-3c0,0-.92.55-2.36,1.64a23,23,0,0,0,15.84,8.8c11.76,1.33,15.56-1,19,1.52s4.36,9.3,1.89,11.57-8.35,2.09-8.73,5.51,5.51,11.58,4.75,14.23-2.28,4.37-1.14,5.51,4.37-.38,5.12-.76.36,4.22-1.86,9.57C308.47,151.59,313.49,140.79,313.89,133.78Z" style="fill: rgb(38, 50, 56); stroke: rgb(38, 50, 56); stroke-linecap: round; stroke-linejoin: round; transform-origin: 291.323px 128.881px;" id="el3bq4gru0pgg" class="animable"></path><path d="M297.94,154.65s4.75-6.26,8.16-6.26,5.13,5.5,3.23,10.63-5.31,7.78-9.49,8.16-4.55-1.71-4.17-3" style="fill: rgb(217, 217, 217); stroke: rgb(38, 50, 56); stroke-linecap: round; stroke-linejoin: round; transform-origin: 302.836px 157.808px;" id="elchgbkye8xni" class="animable"></path><path d="M295.67,269.48s5.31,13.47,9.11,18,14,11.95,22.58,17.65,10.25,18.41,8.92,23.15-5.31,8.54-14.23,6.08-16.14-13.1-23.54-24.11-12.33-19.17-12.9-19.74S295.67,269.48,295.67,269.48Z" style="fill: rgb(217, 217, 217); transform-origin: 311.137px 302.306px;" id="el9pd4hfk6srs" class="animable"></path><g style="clip-path: url(&quot;#freepik--clip-path-3--inject-182&quot;); transform-origin: 311.134px 301.705px;" id="elzsq8y6mt61" class="animable"><g id="el0hxrd3qf4ef"><path d="M336.28,328.31c1.33-4.74-.38-17.46-8.92-23.15s-18.79-13.1-22.58-17.65-9.11-18-9.11-18S285,290,285.61,290.54s5.5,8.73,12.9,19.74l.26.39,5.14-7.83s27.64,21.27,28.35,26.23a20.53,20.53,0,0,1,0,4.83A9.1,9.1,0,0,0,336.28,328.31Z" style="opacity: 0.15; transform-origin: 311.134px 301.705px;" class="animable" id="elsf87k8drxj"></path></g></g><path d="M295.67,269.48s5.31,13.47,9.11,18,14,11.95,22.58,17.65,10.25,18.41,8.92,23.15-5.31,8.54-14.23,6.08-16.14-13.1-23.54-24.11-12.33-19.17-12.9-19.74S295.67,269.48,295.67,269.48Z" style="fill: none; stroke: rgb(38, 50, 56); stroke-linecap: round; stroke-linejoin: round; transform-origin: 311.137px 302.306px;" id="ell1pbmzd4xu" class="animable"></path><path d="M301.36,416s4.95,1.81,15.19-2.17c14.59-5.66,37.86-24.83,37.86-24.83a95.55,95.55,0,0,1-34,0c-18.81-3.38-28.93-8.44-28.93-8.44L271.7,408.79Z" style="fill: rgb(255, 255, 255); transform-origin: 313.055px 398.485px;" id="el1k7uhxqbuw5" class="animable"></path><g style="clip-path: url(&quot;#freepik--clip-path-4--inject-182&quot;); transform-origin: 313.055px 398.485px;" id="elgailb9xu3md" class="animable"><path d="M301.36,416s4.95,1.81,15.19-2.17c14.59-5.66,37.86-24.83,37.86-24.83a95.55,95.55,0,0,1-34,0c-18.81-3.38-28.93-8.44-28.93-8.44L271.7,408.79Z" style="fill: #417EAC; transform-origin: 313.055px 398.485px;" id="eln0pu4ql92ya" class="animable"></path><g id="elwrg6h8pd0z"><path d="M301.36,416s4.95,1.81,15.19-2.17c14.59-5.66,37.86-24.83,37.86-24.83a95.55,95.55,0,0,1-34,0c-18.81-3.38-28.93-8.44-28.93-8.44L271.7,408.79Z" style="fill: rgb(255, 255, 255); opacity: 0.5; transform-origin: 313.055px 398.485px;" class="animable" id="elkw9wgzfcuzl"></path></g></g><path d="M301.36,416s4.95,1.81,15.19-2.17c14.59-5.66,37.86-24.83,37.86-24.83a95.55,95.55,0,0,1-34,0c-18.81-3.38-28.93-8.44-28.93-8.44L271.7,408.79Z" style="fill: none; stroke: rgb(38, 50, 56); stroke-linecap: round; stroke-linejoin: round; transform-origin: 313.055px 398.485px;" id="el9lhb7ltmo0k" class="animable"></path><line x1="274.62" y1="405.88" x2="312.7" y2="412.27" style="fill: rgb(255, 255, 255); stroke: rgb(38, 50, 56); stroke-linecap: round; stroke-linejoin: round; transform-origin: 293.66px 409.075px;" id="elz9wyc6w6ivh" class="animable"></line><line x1="317.98" y1="408.94" x2="280.18" y2="401.99" style="fill: rgb(255, 255, 255); stroke: rgb(38, 50, 56); stroke-linecap: round; stroke-linejoin: round; transform-origin: 299.08px 405.465px;" id="ell0h5spjjn2l" class="animable"></line><line x1="321.87" y1="405.6" x2="289.35" y2="399.76" style="fill: rgb(255, 255, 255); stroke: rgb(38, 50, 56); stroke-linecap: round; stroke-linejoin: round; transform-origin: 305.61px 402.68px;" id="elxy7z2vnxgsh" class="animable"></line><line x1="327.43" y1="401.43" x2="296.58" y2="395.6" style="fill: rgb(255, 255, 255); stroke: rgb(38, 50, 56); stroke-linecap: round; stroke-linejoin: round; transform-origin: 312.005px 398.515px;" id="el1vzhgiudlqg" class="animable"></line><line x1="329.38" y1="397.82" x2="300.19" y2="392.82" style="fill: rgb(255, 255, 255); stroke: rgb(38, 50, 56); stroke-linecap: round; stroke-linejoin: round; transform-origin: 314.785px 395.32px;" id="el2x99n0zmqb4" class="animable"></line><path d="M317.76,365.87s7.9-1.27,3.56,10.55-18.51,22.24-20.2,30.68.24,8.92.24,8.92l-24.59-5.3s1.93-18.33,15.43-32.31S317.76,365.87,317.76,365.87Z" style="fill: rgb(255, 255, 255); transform-origin: 299.696px 390.924px;" id="elsdkdtcgxpon" class="animable"></path><g style="clip-path: url(&quot;#freepik--clip-path-5--inject-182&quot;); transform-origin: 299.696px 390.924px;" id="elokh6r80gyys" class="animable"><g id="elsu23w53pnd"><path d="M317.76,365.87s7.9-1.27,3.56,10.55-18.51,22.24-20.2,30.68.24,8.92.24,8.92l-24.59-5.3s1.93-18.33,15.43-32.31S317.76,365.87,317.76,365.87Z" style="opacity: 0.15; transform-origin: 299.696px 390.924px;" class="animable" id="el6h7nkxmijbt"></path></g></g><path d="M317.76,365.87s7.9-1.27,3.56,10.55-18.51,22.24-20.2,30.68.24,8.92.24,8.92l-24.59-5.3s1.93-18.33,15.43-32.31S317.76,365.87,317.76,365.87Z" style="fill: none; stroke: rgb(38, 50, 56); stroke-linecap: round; stroke-linejoin: round; transform-origin: 299.696px 390.924px;" id="el7lmqn47t9pm" class="animable"></path><path d="M269.77,424s4.1-1,8.2-7,13.26-25.08,20.74-35.21,19.05-15.91,19.05-15.91l-58.6-6.51s-23.87,26.76-32.07,36.17-9.16,18.08-3.37,20.25,24.11,4.34,28.93,5.07S265.67,424.7,269.77,424Z" style="fill: rgb(255, 255, 255); transform-origin: 268.896px 391.736px;" id="elm7x9cm2nfwa" class="animable"></path><g style="clip-path: url(&quot;#freepik--clip-path-6--inject-182&quot;); transform-origin: 268.896px 391.736px;" id="el2qbp9r40tp7" class="animable"><path d="M269.77,424s4.1-1,8.2-7,13.26-25.08,20.74-35.21,19.05-15.91,19.05-15.91l-58.6-6.51s-23.87,26.76-32.07,36.17-9.16,18.08-3.37,20.25,24.11,4.34,28.93,5.07S265.67,424.7,269.77,424Z" style="fill: #417EAC; transform-origin: 268.896px 391.736px;" id="elcxp5hqfwoxu" class="animable"></path><g id="el1thdyzjrt3k"><path d="M269.77,424s4.1-1,8.2-7,13.26-25.08,20.74-35.21,19.05-15.91,19.05-15.91l-58.6-6.51s-23.87,26.76-32.07,36.17-9.16,18.08-3.37,20.25,24.11,4.34,28.93,5.07S265.67,424.7,269.77,424Z" style="fill: rgb(255, 255, 255); opacity: 0.5; transform-origin: 268.896px 391.736px;" class="animable" id="elq9tu582rj5"></path></g></g><path d="M269.77,424s4.1-1,8.2-7,13.26-25.08,20.74-35.21,19.05-15.91,19.05-15.91l-58.6-6.51s-23.87,26.76-32.07,36.17-9.16,18.08-3.37,20.25,24.11,4.34,28.93,5.07S265.67,424.7,269.77,424Z" style="fill: none; stroke: rgb(38, 50, 56); stroke-linecap: round; stroke-linejoin: round; transform-origin: 268.896px 391.736px;" id="elrbw3p62ttr" class="animable"></path><line x1="273.4" y1="415.7" x2="220.72" y2="404.5" style="fill: none; stroke: rgb(38, 50, 56); stroke-linecap: round; stroke-linejoin: round; transform-origin: 247.06px 410.1px;" id="el57qilqr5jev" class="animable"></line><line x1="276.72" y1="409.07" x2="224.03" y2="397.86" style="fill: none; stroke: rgb(38, 50, 56); stroke-linecap: round; stroke-linejoin: round; transform-origin: 250.375px 403.465px;" id="elabwejwsfdbt" class="animable"></line><line x1="280.87" y1="401.6" x2="228.18" y2="390.4" style="fill: none; stroke: rgb(38, 50, 56); stroke-linecap: round; stroke-linejoin: round; transform-origin: 254.525px 396px;" id="elzvqvhwye3io" class="animable"></line><line x1="285.44" y1="392.47" x2="232.75" y2="381.27" style="fill: none; stroke: rgb(38, 50, 56); stroke-linecap: round; stroke-linejoin: round; transform-origin: 259.095px 386.87px;" id="el3xx7s9z9mse" class="animable"></line><line x1="290.41" y1="383.34" x2="237.73" y2="372.14" style="fill: none; stroke: rgb(38, 50, 56); stroke-linecap: round; stroke-linejoin: round; transform-origin: 264.07px 377.74px;" id="elum14pseoqms" class="animable"></line><line x1="294.56" y1="375.88" x2="241.87" y2="364.68" style="fill: none; stroke: rgb(38, 50, 56); stroke-linecap: round; stroke-linejoin: round; transform-origin: 268.215px 370.28px;" id="elubdd3ovdipl" class="animable"></line><line x1="300.79" y1="370.07" x2="248.1" y2="358.87" style="fill: none; stroke: rgb(38, 50, 56); stroke-linecap: round; stroke-linejoin: round; transform-origin: 274.445px 364.47px;" id="el15csnl3cb2a" class="animable"></line><path d="M287.38,356s4.82,0,2.17,7.72-18.33,28-23.39,41.71S269.77,424,269.77,424s-1.93,2.89-30.14-3.13-46.29-6.76-48-11.58,9.4-17.84,13.5-28.21,14.47-34.72,14.47-34.72,41,8,49.67,8.68S287.38,356,287.38,356Z" style="fill: rgb(255, 255, 255); transform-origin: 240.899px 385.527px;" id="ely0kqmtifjr" class="animable"></path><g style="clip-path: url(&quot;#freepik--clip-path-7--inject-182&quot;); transform-origin: 244.864px 377.135px;" id="elcpnd33y3hos" class="animable"><g id="elwlwjdz72ua"><path d="M287.38,356s-9.41-.24-18.09-1-49.67-8.68-49.67-8.68-10.37,24.35-14.47,34.72a78.69,78.69,0,0,1-5.79,11l66,15.91c.22-.82.49-1.67.82-2.56,5.06-13.74,20.73-34,23.39-41.71S287.38,356,287.38,356Z" style="opacity: 0.15; transform-origin: 244.864px 377.135px;" class="animable" id="elaasvdv97ah"></path></g></g><path d="M287.38,356s4.82,0,2.17,7.72-18.33,28-23.39,41.71S269.77,424,269.77,424s-1.93,2.89-30.14-3.13-46.29-6.76-48-11.58,9.4-17.84,13.5-28.21,14.47-34.72,14.47-34.72,41,8,49.67,8.68S287.38,356,287.38,356Z" style="fill: none; stroke: rgb(38, 50, 56); stroke-linecap: round; stroke-linejoin: round; transform-origin: 240.899px 385.527px;" id="elzahjd2f3u6b" class="animable"></path><path d="M256.75,386.6s0,1.93,7.24-6.75S287.38,356,287.38,356l-74.51-16.15S191.65,361.77,189,365.14s-4.59,4.34,2.41,7.48,42,7,49.43,8.92S256.75,386.6,256.75,386.6Z" style="fill: rgb(255, 255, 255); transform-origin: 236.982px 363.316px;" id="el15daabua14c" class="animable"></path><g style="clip-path: url(&quot;#freepik--clip-path-8--inject-182&quot;); transform-origin: 236.982px 363.316px;" id="elkjluzaqhh6" class="animable"><path d="M256.75,386.6s0,1.93,7.24-6.75S287.38,356,287.38,356l-74.51-16.15S191.65,361.77,189,365.14s-4.59,4.34,2.41,7.48,42,7,49.43,8.92S256.75,386.6,256.75,386.6Z" style="fill: #417EAC; transform-origin: 236.982px 363.316px;" id="elb0tx83zcoe7" class="animable"></path><g id="elixzd56ivy7"><path d="M256.75,386.6s0,1.93,7.24-6.75S287.38,356,287.38,356l-74.51-16.15S191.65,361.77,189,365.14s-4.59,4.34,2.41,7.48,42,7,49.43,8.92S256.75,386.6,256.75,386.6Z" style="fill: rgb(255, 255, 255); opacity: 0.5; transform-origin: 236.982px 363.316px;" class="animable" id="elvqjdalr6o9"></path></g></g><path d="M256.75,386.6s0,1.93,7.24-6.75S287.38,356,287.38,356l-74.51-16.15S191.65,361.77,189,365.14s-4.59,4.34,2.41,7.48,42,7,49.43,8.92S256.75,386.6,256.75,386.6Z" style="fill: none; stroke: rgb(38, 50, 56); stroke-linecap: round; stroke-linejoin: round; transform-origin: 236.982px 363.316px;" id="eltkhn0kq0vrb" class="animable"></path><path d="M262.39,378.92s-45-5.28-57.54-7.79" style="fill: none; stroke: rgb(38, 50, 56); stroke-linecap: round; stroke-linejoin: round; transform-origin: 233.62px 375.025px;" id="elnq4swoyu13" class="animable"></path><path d="M266.28,371.69s-26.69-2.78-37.81-5" style="fill: none; stroke: rgb(38, 50, 56); stroke-linecap: round; stroke-linejoin: round; transform-origin: 247.375px 369.19px;" id="elh39tkbjhn2u" class="animable"></path><path d="M272.12,364.18s-32.8-5.83-41.14-8.06" style="fill: none; stroke: rgb(38, 50, 56); stroke-linecap: round; stroke-linejoin: round; transform-origin: 251.55px 360.15px;" id="elpmdur8l73w9" class="animable"></path><line x1="277.4" y1="358.35" x2="238.2" y2="349.17" style="fill: none; stroke: rgb(38, 50, 56); stroke-linecap: round; stroke-linejoin: round; transform-origin: 257.8px 353.76px;" id="elr1bky013p89" class="animable"></line><path d="M285.42,263s-1.66,5.43-4.07,23.52-6,38.82-10.85,54.25-14.23,37.86-14.95,40.75a5.94,5.94,0,0,0,1.2,5.06s-9.4-1.44-35.93-4.34-52.56-15.91-51.84-17.6,18.09-18.81,28-41,25.32-77.89,25.32-77.89,31.35,14.71,40.75,15.68S285.42,263,285.42,263Z" style="fill: rgb(255, 255, 255); transform-origin: 227.193px 316.165px;" id="elke09artp13b" class="animable"></path><g style="clip-path: url(&quot;#freepik--clip-path-9--inject-182&quot;); transform-origin: 243.625px 288.94px;" id="el0zjxmzezjyq" class="animable"><g id="elnli4zc3bgl"><path d="M281.35,286.54c2.41-18.09,4.07-23.52,4.07-23.52s-13-.6-22.4-1.56-40.75-15.68-40.75-15.68-11.05,39.89-20.44,65.6L273,332.1A405.61,405.61,0,0,0,281.35,286.54Z" style="opacity: 0.15; transform-origin: 243.625px 288.94px;" class="animable" id="el3suirvybfy2"></path></g></g><path d="M285.42,263s-1.66,5.43-4.07,23.52-6,38.82-10.85,54.25-14.23,37.86-14.95,40.75a5.94,5.94,0,0,0,1.2,5.06s-9.4-1.44-35.93-4.34-52.56-15.91-51.84-17.6,18.09-18.81,28-41,25.32-77.89,25.32-77.89,31.35,14.71,40.75,15.68S285.42,263,285.42,263Z" style="fill: none; stroke: rgb(38, 50, 56); stroke-linecap: round; stroke-linejoin: round; transform-origin: 227.193px 316.165px;" id="ela4eugaikbw6" class="animable"></path><path d="M291.68,252.21s4.74,1.13,6.07,8.54,1.14,25.81.57,28.09S282,293.2,275.17,294s-3.23-1.71-.19-12.53,6.26-18.79,7.78-21.06S287.5,249.93,291.68,252.21Z" style="fill: rgb(217, 217, 217); stroke: rgb(38, 50, 56); stroke-linecap: round; stroke-linejoin: round; transform-origin: 285.012px 272.976px;" id="elfdi1dmrppx8" class="animable"></path><g id="el8umr63mk69o"><path d="M286.54,260.67s1.25,26.48,1.77,29.41-17.37,4.26-17.37,4.26l11-30.84" style="opacity: 0.15; transform-origin: 279.631px 277.505px;" class="animable" id="elwz6vka8067o"></path></g><path d="M286.93,300s-6.45,4.56-8.73,5.7-14.42-3.8-14.8-5.51,2.09-1.33,5.5-1,9.3,1.33,11.77.38S287.5,297.76,286.93,300Z" style="fill: rgb(217, 217, 217); stroke: rgb(38, 50, 56); stroke-linecap: round; stroke-linejoin: round; transform-origin: 275.171px 302.226px;" id="eln8bnvd0c2s" class="animable"></path><path d="M295.29,292.06s-2.09,5.7-4.75,7.4-13.47,3.42-18.22,3-8.73-3.42-7.59-5.12-.19-.76,6.26-1.71,14.43-1.52,17.84-2.66A19,19,0,0,1,295.29,292.06Z" style="fill: rgb(217, 217, 217); stroke: rgb(38, 50, 56); stroke-linecap: round; stroke-linejoin: round; transform-origin: 279.912px 297.287px;" id="el8wajicixbff" class="animable"></path><path d="M295.85,280.86s-7.21,3.8-13.09,6.46a60.08,60.08,0,0,1-5.9,2.19,62.1,62.1,0,0,1-7.2.46c-4.17,0-6.64-.37-6.64,1.33,0,2.6,4.55,4,6.48,4.53,6.71,1.92,14.62-.43,21.38-1.54A14.15,14.15,0,0,0,295.1,293c3.51-1.71,4.17-5.88,3.6-8.35l-.23-.3" style="fill: rgb(217, 217, 217); stroke: rgb(38, 50, 56); stroke-linecap: round; stroke-linejoin: round; transform-origin: 280.951px 288.71px;" id="elwaprvhrb0z" class="animable"></path><path d="M285.42,263s-4.37,12.34-9.3,27.52a277.24,277.24,0,0,0-7.79,30.37s-3.41-1.9-28.84-10.63-57.32-19.36-57.32-19.36,23.91-28.09,29-41.56,7.78-11,19.55-6.45,28.09,12.9,37.57,13.85S285.42,261.13,285.42,263Z" style="fill: rgb(255, 255, 255); transform-origin: 233.795px 280.081px;" id="eleps2bzrgmz9" class="animable"></path><g style="clip-path: url(&quot;#freepik--clip-path-10--inject-182&quot;); transform-origin: 233.795px 280.081px;" id="elq4lec1u7gti" class="animable"><path d="M285.42,263s-4.37,12.34-9.3,27.52a277.24,277.24,0,0,0-7.79,30.37s-3.41-1.9-28.84-10.63-57.32-19.36-57.32-19.36,23.91-28.09,29-41.56,7.78-11,19.55-6.45,28.09,12.9,37.57,13.85S285.42,261.13,285.42,263Z" style="fill: #417EAC; transform-origin: 233.795px 280.081px;" id="elspv21rzjv3" class="animable"></path><g id="el5h3nknobxx9"><path d="M285.42,263s-4.37,12.34-9.3,27.52a277.24,277.24,0,0,0-7.79,30.37s-3.41-1.9-28.84-10.63-57.32-19.36-57.32-19.36,23.91-28.09,29-41.56,7.78-11,19.55-6.45,28.09,12.9,37.57,13.85S285.42,261.13,285.42,263Z" style="fill: rgb(255, 255, 255); opacity: 0.5; transform-origin: 233.795px 280.081px;" class="animable" id="elg0i16rr6oua"></path></g></g><path d="M285.42,263s-4.37,12.34-9.3,27.52a277.24,277.24,0,0,0-7.79,30.37s-3.41-1.9-28.84-10.63-57.32-19.36-57.32-19.36,23.91-28.09,29-41.56,7.78-11,19.55-6.45,28.09,12.9,37.57,13.85S285.42,261.13,285.42,263Z" style="fill: none; stroke: rgb(38, 50, 56); stroke-linecap: round; stroke-linejoin: round; transform-origin: 233.795px 280.081px;" id="el4q1iiia55et" class="animable"></path><line x1="266.83" y1="303.31" x2="203.18" y2="281.35" style="fill: none; stroke: rgb(38, 50, 56); stroke-linecap: round; stroke-linejoin: round; transform-origin: 235.005px 292.33px;" id="elc72c99y2gxa" class="animable"></line><line x1="269.5" y1="295.83" x2="208.18" y2="274.68" style="fill: none; stroke: rgb(38, 50, 56); stroke-linecap: round; stroke-linejoin: round; transform-origin: 238.84px 285.255px;" id="ela0qbhr54l3i" class="animable"></line><line x1="272.12" y1="288.3" x2="212.63" y2="267.73" style="fill: none; stroke: rgb(38, 50, 56); stroke-linecap: round; stroke-linejoin: round; transform-origin: 242.375px 278.015px;" id="el22ldosvrm90j" class="animable"></line><line x1="274.34" y1="279.13" x2="218.75" y2="260.22" style="fill: none; stroke: rgb(38, 50, 56); stroke-linecap: round; stroke-linejoin: round; transform-origin: 246.545px 269.675px;" id="el3htssf3g95p" class="animable"></line><line x1="276.01" y1="270.51" x2="224.3" y2="252.16" style="fill: none; stroke: rgb(38, 50, 56); stroke-linecap: round; stroke-linejoin: round; transform-origin: 250.155px 261.335px;" id="elzcf2bcviugh" class="animable"></line><ellipse cx="199.84" cy="280.38" rx="2.5" ry="1.81" style="fill: none; stroke: rgb(38, 50, 56); stroke-linecap: round; stroke-linejoin: round; transform-origin: 199.84px 280.38px;" id="eludt0w6sygx" class="animable"></ellipse><ellipse cx="205.12" cy="273.71" rx="2.5" ry="1.81" style="fill: none; stroke: rgb(38, 50, 56); stroke-linecap: round; stroke-linejoin: round; transform-origin: 205.12px 273.71px;" id="el0hjgv52ap35e" class="animable"></ellipse><ellipse cx="209.29" cy="267.45" rx="2.5" ry="1.81" style="fill: none; stroke: rgb(38, 50, 56); stroke-linecap: round; stroke-linejoin: round; transform-origin: 209.29px 267.45px;" id="el63phjh45dsc" class="animable"></ellipse><ellipse cx="213.74" cy="258.83" rx="2.5" ry="1.81" style="fill: none; stroke: rgb(38, 50, 56); stroke-linecap: round; stroke-linejoin: round; transform-origin: 213.74px 258.83px;" id="el1xn6tw6mxoj" class="animable"></ellipse><path d="M222.08,250.5c0-1-1.12-1.81-2.5-1.81s-2.5.81-2.5,1.81,1.12,1.8,2.5,1.8S222.08,251.49,222.08,250.5Z" style="fill: none; stroke: rgb(38, 50, 56); stroke-linecap: round; stroke-linejoin: round; transform-origin: 219.58px 250.495px;" id="elv0w6la3gexf" class="animable"></path><path d="M290.92,258.09s-5.88,10.25-9.68,11.77-14.8-.19-14-2.66,6.26-3.23,9.87-8,6.83-11,10.24-10.06,5.89,4.93,6.08,6.26" style="fill: rgb(217, 217, 217); stroke: rgb(38, 50, 56); stroke-linecap: round; stroke-linejoin: round; transform-origin: 280.314px 259.739px;" id="ele97kwxzala" class="animable"></path><path d="M193.37,189.2s1.14,19.35,1.14,20.11-31.32,33.41-38.53,41-7.4,13.85-5.7,18.6,7.6,11.58,12.91,12.33,11.2-4.55,16.51-16.32,24.3-47.26,26.38-51.05,7-7.21,7-7.21,5.12-2.66,7.4-6.46,6.64-11.38,11.38-15,7-4.56,4.94-5.69-8.73,1.32-10.63,2.65-6.07,4.75-6.07,4.75-3.61-5.32-3.8-9.87.95-11.06-1.7-9.73-7.07,11.13-12.72,16.37C196.59,188.63,193.37,186.35,193.37,189.2Z" style="fill: rgb(217, 217, 217); transform-origin: 193.48px 224.222px;" id="el6apypyt4ebs" class="animable"></path><g style="clip-path: url(&quot;#freepik--clip-path-11--inject-182&quot;); transform-origin: 194.946px 224.253px;" id="elt3bk061pfyr" class="animable"><g id="eld3t078moby"><path d="M236.83,179.52c-2.09-1.14-8.73,1.32-10.63,2.65s-6.07,4.75-6.07,4.75-3.61-5.32-3.8-9.87.95-11.06-1.7-9.73-7.07,11.13-12.72,16.37a14,14,0,0,1-5.15,3.2l-.95,4s3.9,2.49,3.9,5.68,5,4.25,5.31,7.44-2.12,6.73-3.9,8.86-30.48,51.74-37.92,57.77c-3.11,2.51-7.2,2.74-10.91,2.16,2.62,3.95,6.92,7.93,10.9,8.49,5.31.76,11.2-4.55,16.51-16.32s24.3-47.26,26.38-51.05,7-7.21,7-7.21,5.12-2.66,7.4-6.46,6.64-11.38,11.38-15S238.92,180.65,236.83,179.52Z" style="opacity: 0.15; transform-origin: 194.946px 224.253px;" class="animable" id="el1eic58lexfg"></path></g></g><path d="M193.37,189.2s1.14,19.35,1.14,20.11-31.32,33.41-38.53,41-7.4,13.85-5.7,18.6,7.6,11.58,12.91,12.33,11.2-4.55,16.51-16.32,24.3-47.26,26.38-51.05,7-7.21,7-7.21,5.12-2.66,7.4-6.46,6.64-11.38,11.38-15,7-4.56,4.94-5.69-8.73,1.32-10.63,2.65-6.07,4.75-6.07,4.75-3.61-5.32-3.8-9.87.95-11.06-1.7-9.73-7.07,11.13-12.72,16.37C196.59,188.63,193.37,186.35,193.37,189.2Z" style="fill: none; stroke: rgb(38, 50, 56); stroke-linecap: round; stroke-linejoin: round; transform-origin: 193.48px 224.222px;" id="elvxsiddoms3f" class="animable"></path><path d="M251.82,168.32l.09.15a2.19,2.19,0,0,1-.85,3l-36.08,20L208,193l4.77-5.49,36.08-20A2.19,2.19,0,0,1,251.82,168.32Z" style="fill: #417EAC; stroke: rgb(38, 50, 56); stroke-linecap: round; stroke-linejoin: round; transform-origin: 230.098px 180.114px;" id="el9itci13f06p" class="animable"></path><polygon points="214.98 191.47 215.24 191.32 213.02 187.35 212.76 187.49 208 192.98 214.98 191.47" style="fill: rgb(255, 255, 255); stroke: rgb(38, 50, 56); stroke-linecap: round; stroke-linejoin: round; transform-origin: 211.62px 190.165px;" id="elthe0r1tt8hr" class="animable"></polygon><path d="M247.34,173.53l3.72-2.08a2.19,2.19,0,0,0,.85-3l-.09-.15a2.19,2.19,0,0,0-3-.85l-3.72,2.08Z" style="fill: rgb(255, 255, 255); stroke: rgb(38, 50, 56); stroke-linecap: round; stroke-linejoin: round; transform-origin: 248.648px 170.347px;" id="elfen8jgr4f7i" class="animable"></path><g id="eln0sihrm80dg"><rect x="244.59" y="169.54" width="2.28" height="4.56" style="fill: rgb(255, 255, 255); stroke: rgb(38, 50, 56); stroke-linecap: round; stroke-linejoin: round; transform-origin: 245.73px 171.82px; transform: rotate(-29.17deg);" class="animable" id="elrd3evxb1t9f"></rect></g><polygon points="208 192.98 211.29 192.26 210.24 190.39 208 192.98" style="fill: rgb(255, 255, 255); stroke: rgb(38, 50, 56); stroke-linecap: round; stroke-linejoin: round; transform-origin: 209.645px 191.685px;" id="el5keoq322rhr" class="animable"></polygon><path d="M201.91,193.75s-.57,4.56-4.18,4.74" style="fill: none; stroke: rgb(38, 50, 56); stroke-linecap: round; stroke-linejoin: round; transform-origin: 199.82px 196.12px;" id="elkylqft3yo4i" class="animable"></path><path d="M212.15,171s6.64,10.63,8.92,12.72,5.12,1.71,5.69-.19-3.22-5.88-4.74-11-2.09-6.64-5.13-5.88S212.34,169.13,212.15,171Z" style="fill: rgb(217, 217, 217); stroke: rgb(38, 50, 56); stroke-linecap: round; stroke-linejoin: round; transform-origin: 219.484px 175.797px;" id="el4qi3qs4c3rd" class="animable"></path><path d="M222.78,184.64s-11.95-6.07-14.61-9.11-5.69.95-6.26,3,8.73,5.88,13.09,7.4,7,2.09,8.35.57S222.78,184.64,222.78,184.64Z" style="fill: rgb(217, 217, 217); stroke: rgb(38, 50, 56); stroke-linecap: round; stroke-linejoin: round; transform-origin: 212.858px 180.91px;" id="el0z4lhig843a" class="animable"></path><path d="M202.67,180.27s-4,1.33-4.75,3,1.33,2.85,5.13,5.13,9.87,3,11.38,2.27,1.71-2.27-.38-3S204.38,181.41,202.67,180.27Z" style="fill: rgb(217, 217, 217); stroke: rgb(38, 50, 56); stroke-linecap: round; stroke-linejoin: round; transform-origin: 206.68px 185.607px;" id="elxzuj3ncy8y" class="animable"></path><path d="M199.25,186.16s-4.36-1.14-5.69,1.33.19,4,4.74,5.31,11.39,2.28,11.58-.19-3.61-2.85-6.83-4.17S199.25,186.16,199.25,186.16Z" style="fill: rgb(217, 217, 217); stroke: rgb(38, 50, 56); stroke-linecap: round; stroke-linejoin: round; transform-origin: 201.492px 190.017px;" id="elxga8ra18p4k" class="animable"></path></g><g id="freepik--Plants--inject-182" class="animable animator-hidden" style="transform-origin: 118.13px 343.73px;"><path d="M92.47,347.58s-2.18-7.1-8.56-9.65c-4.43-1.78-9.52-1.31-14.11-.51-8.55,1.48-16,4.88-24.12,7.79,0,0,3.46-1.28,17.66,5.64,5.23,2.55,11.21,4.53,17.19,4.39C85.34,355.14,92.7,353.77,92.47,347.58Z" style="fill: #417EAC; transform-origin: 69.0776px 345.977px;" id="elmwkk8xke5oe" class="animable"></path><path d="M93.24,326.72s0-7.43-5.4-11.71c-3.73-3-8.75-4-13.37-4.57-8.62-1-16.74.05-25.34.49,0,0,3.68-.22,15.28,10.51,4.27,3.95,9.42,7.57,15.19,9.17C84.23,331.89,91.67,332.71,93.24,326.72Z" style="fill: #417EAC; transform-origin: 71.185px 320.772px;" id="elm5xdptu8bi9" class="animable"></path><path d="M107.92,354.3s-5.79-4.65-5.81-11.51c0-4.77,2.29-9.34,4.73-13.31,4.53-7.4,10.44-13.08,16.13-19.54,0,0-2.46,2.74-1.26,18.49.44,5.8.07,12.09-2.26,17.6C117.58,350.46,113.59,356.8,107.92,354.3Z" style="fill: #417EAC; transform-origin: 112.54px 332.403px;" id="elfofei3j9adq" class="animable"></path><path d="M128.44,365.71s-.82-7.39,4-12.26c3.36-3.38,8.22-5,12.75-6.08,8.44-2,16.63-1.88,25.23-2.44,0,0-3.68.21-14,12.2-3.79,4.42-8.49,8.61-14,10.87C138,369.81,130.69,371.48,128.44,365.71Z" style="fill: #417EAC; transform-origin: 149.404px 357.316px;" id="elmjdnvpvl4n" class="animable"></path><path d="M127.09,339.39s-7.36-1-10.9-6.89c-2.46-4.09-2.82-9.19-2.77-13.85.09-8.68,2.24-16.59,3.8-25,0,0-.7,3.61,8.42,16.51,3.35,4.76,6.27,10.34,7.1,16.26C133.41,331.13,133.24,338.62,127.09,339.39Z" style="fill: #417EAC; transform-origin: 123.211px 316.52px;" id="elizmn4wlsash" class="animable"></path><path d="M148.27,326.17s5.3,5.22,12.12,4.43c4.73-.54,9-3.37,12.66-6.25,6.82-5.36,11.77-11.9,17.53-18.3,0,0-2.44,2.76-18.22,3.41-5.82.24-12,1.34-17.22,4.3C151,316.13,145.13,320.83,148.27,326.17Z" style="fill: #417EAC; transform-origin: 168.981px 318.366px;" id="elpzds0055xeb" class="animable"></path><path d="M142.14,321s7.4.74,12.22-4.14c3.35-3.39,4.9-8.27,5.95-12.81,1.95-8.46,1.71-16.65,2.18-25.25,0,0-.17,3.68-12.06,14.08-4.38,3.84-8.52,8.58-10.72,14.14C138,311.51,136.35,318.83,142.14,321Z" style="fill: #417EAC; transform-origin: 150.297px 299.92px;" id="eldgq8m80y1zf" class="animable"></path><polyline points="115.76 392.96 103 361.56 88.28 325.25" style="fill: none; stroke: rgb(38, 50, 56); stroke-linecap: round; stroke-linejoin: round; transform-origin: 102.02px 359.105px;" id="elxj4oi498bm" class="animable"></polyline><polyline points="118.7 387.56 131.46 343.89 145.19 316.91" style="fill: none; stroke: rgb(38, 50, 56); stroke-linecap: round; stroke-linejoin: round; transform-origin: 131.945px 352.235px;" id="elpdyfyl0rit" class="animable"></polyline><line x1="123.61" y1="370.39" x2="136.36" y2="363.03" style="fill: none; stroke: rgb(38, 50, 56); stroke-linecap: round; stroke-linejoin: round; transform-origin: 129.985px 366.71px;" id="elrm7wehwfkmj" class="animable"></line><line x1="131.46" y1="343.89" x2="125.08" y2="329.66" style="fill: none; stroke: rgb(38, 50, 56); stroke-linecap: round; stroke-linejoin: round; transform-origin: 128.27px 336.775px;" id="elvt9ll07ia" class="animable"></line><line x1="139.44" y1="329.73" x2="155.01" y2="322.79" style="fill: none; stroke: rgb(38, 50, 56); stroke-linecap: round; stroke-linejoin: round; transform-origin: 147.225px 326.26px;" id="eln1zvc0idfhs" class="animable"></line><line x1="105.45" y1="367.44" x2="110.85" y2="345.85" style="fill: none; stroke: rgb(38, 50, 56); stroke-linecap: round; stroke-linejoin: round; transform-origin: 108.15px 356.645px;" id="elmvbv9flc7y" class="animable"></line><line x1="98.3" y1="351.03" x2="85.83" y2="344.38" style="fill: none; stroke: rgb(38, 50, 56); stroke-linecap: round; stroke-linejoin: round; transform-origin: 92.065px 347.705px;" id="elv555ku5u3tp" class="animable"></line><polygon points="128.49 408.66 105.48 408.66 100.55 382.65 133.42 382.65 128.49 408.66" style="fill: rgb(38, 50, 56); stroke: rgb(38, 50, 56); stroke-linecap: round; stroke-linejoin: round; transform-origin: 116.985px 395.655px;" id="el8cehrdmt7wd" class="animable"></polygon></g><defs><clipPath id="freepik--clip-path--inject-182"><path d="M258.66,183.31A55.71,55.71,0,0,1,252,206.09c-6.45,12.14-3.41,35.11-.19,34S274.6,226,277.26,218.61s2.08-18.41,6.83-30.17S291.87,170,291.87,170,263.59,182.93,258.66,183.31Z" style="fill:#d9d9d9;stroke:#263238;stroke-linecap:round;stroke-linejoin:round"></path></clipPath><clipPath id="freepik--clip-path-2--inject-182"><path d="M271,101.89a48.37,48.37,0,0,0-16.51,18.6c-6.07,12.34-5.69,28.66-5.69,28.66s.57,18.22-.38,25.43,8,12.34,12.14,12.53,17.08-8.35,23.16-10.82,7.78-2.85,13.66-8.73,15.95-23.73,16.52-33.78S312.75,112,304,104.93,283.52,95.63,271,101.89Z" style="fill:#d9d9d9;stroke:#263238;stroke-linecap:round;stroke-linejoin:round"></path></clipPath><clipPath id="freepik--clip-path-3--inject-182"><path d="M295.67,269.48s5.31,13.47,9.11,18,14,11.95,22.58,17.65,10.25,18.41,8.92,23.15-5.31,8.54-14.23,6.08-16.14-13.1-23.54-24.11-12.33-19.17-12.9-19.74S295.67,269.48,295.67,269.48Z" style="fill:#d9d9d9;stroke:#263238;stroke-linecap:round;stroke-linejoin:round"></path></clipPath><clipPath id="freepik--clip-path-4--inject-182"><path d="M301.36,416s4.95,1.81,15.19-2.17c14.59-5.66,37.86-24.83,37.86-24.83a95.55,95.55,0,0,1-34,0c-18.81-3.38-28.93-8.44-28.93-8.44L271.7,408.79Z" style="fill:#fff;stroke:#263238;stroke-linecap:round;stroke-linejoin:round"></path></clipPath><clipPath id="freepik--clip-path-5--inject-182"><path d="M317.76,365.87s7.9-1.27,3.56,10.55-18.51,22.24-20.2,30.68.24,8.92.24,8.92l-24.59-5.3s1.93-18.33,15.43-32.31S317.76,365.87,317.76,365.87Z" style="fill:#fff;stroke:#263238;stroke-linecap:round;stroke-linejoin:round"></path></clipPath><clipPath id="freepik--clip-path-6--inject-182"><path d="M269.77,424s4.1-1,8.2-7,13.26-25.08,20.74-35.21,19.05-15.91,19.05-15.91l-58.6-6.51s-23.87,26.76-32.07,36.17-9.16,18.08-3.37,20.25,24.11,4.34,28.93,5.07S265.67,424.7,269.77,424Z" style="fill:#fff;stroke:#263238;stroke-linecap:round;stroke-linejoin:round"></path></clipPath><clipPath id="freepik--clip-path-7--inject-182"><path d="M287.38,356s4.82,0,2.17,7.72-18.33,28-23.39,41.71S269.77,424,269.77,424s-1.93,2.89-30.14-3.13-46.29-6.76-48-11.58,9.4-17.84,13.5-28.21,14.47-34.72,14.47-34.72,41,8,49.67,8.68S287.38,356,287.38,356Z" style="fill:#fff;stroke:#263238;stroke-linecap:round;stroke-linejoin:round"></path></clipPath><clipPath id="freepik--clip-path-8--inject-182"><path d="M256.75,386.6s0,1.93,7.24-6.75S287.38,356,287.38,356l-74.51-16.15S191.65,361.77,189,365.14s-4.59,4.34,2.41,7.48,42,7,49.43,8.92S256.75,386.6,256.75,386.6Z" style="fill:#fff;stroke:#263238;stroke-linecap:round;stroke-linejoin:round"></path></clipPath><clipPath id="freepik--clip-path-9--inject-182"><path d="M285.42,263s-1.66,5.43-4.07,23.52-6,38.82-10.85,54.25-14.23,37.86-14.95,40.75a5.94,5.94,0,0,0,1.2,5.06s-9.4-1.44-35.93-4.34-52.56-15.91-51.84-17.6,18.09-18.81,28-41,25.32-77.89,25.32-77.89,31.35,14.71,40.75,15.68S285.42,263,285.42,263Z" style="fill:#fff;stroke:#263238;stroke-linecap:round;stroke-linejoin:round"></path></clipPath><clipPath id="freepik--clip-path-10--inject-182"><path d="M285.42,263s-4.37,12.34-9.3,27.52a277.24,277.24,0,0,0-7.79,30.37s-3.41-1.9-28.84-10.63-57.32-19.36-57.32-19.36,23.91-28.09,29-41.56,7.78-11,19.55-6.45,28.09,12.9,37.57,13.85S285.42,261.13,285.42,263Z" style="fill:#fff;stroke:#263238;stroke-linecap:round;stroke-linejoin:round"></path></clipPath><clipPath id="freepik--clip-path-11--inject-182"><path d="M193.37,189.2s1.14,19.35,1.14,20.11-31.32,33.41-38.53,41-7.4,13.85-5.7,18.6,7.6,11.58,12.91,12.33,11.2-4.55,16.51-16.32,24.3-47.26,26.38-51.05,7-7.21,7-7.21,5.12-2.66,7.4-6.46,6.64-11.38,11.38-15,7-4.56,4.94-5.69-8.73,1.32-10.63,2.65-6.07,4.75-6.07,4.75-3.61-5.32-3.8-9.87.95-11.06-1.7-9.73-7.07,11.13-12.72,16.37C196.59,188.63,193.37,186.35,193.37,189.2Z" style="fill:#d9d9d9;stroke:#263238;stroke-linecap:round;stroke-linejoin:round"></path></clipPath></defs><defs>     <filter id="active" height="200%">         <feMorphology in="SourceAlpha" result="DILATED" operator="dilate" radius="2"></feMorphology>                <feFlood flood-color="#32DFEC" flood-opacity="1" result="PINK"></feFlood>        <feComposite in="PINK" in2="DILATED" operator="in" result="OUTLINE"></feComposite>        <feMerge>            <feMergeNode in="OUTLINE"></feMergeNode>            <feMergeNode in="SourceGraphic"></feMergeNode>        </feMerge>    </filter>    <filter id="hover" height="200%">        <feMorphology in="SourceAlpha" result="DILATED" operator="dilate" radius="2"></feMorphology>                <feFlood flood-color="#ff0000" flood-opacity="0.5" result="PINK"></feFlood>        <feComposite in="PINK" in2="DILATED" operator="in" result="OUTLINE"></feComposite>        <feMerge>            <feMergeNode in="OUTLINE"></feMergeNode>            <feMergeNode in="SourceGraphic"></feMergeNode>        </feMerge>            <feColorMatrix type="matrix" values="0   0   0   0   0                0   1   0   0   0                0   0   0   0   0                0   0   0   1   0 "></feColorMatrix>    </filter></defs></svg>